<!-- Generated by balatro_text_to_svg.py - https://github.com/Breezebuilder/Steamodded-Wiki/blob/dev/Assets/Scripts/balatro_text_to_svg.py -->
<!--
	 {E:1,C:green}probabilities{}
	 probabilities
-->

<svg xmlns="http://www.w3.org/2000/svg" height="128" viewBox="0 0 160 40">
	<defs>
		<path id="a" d="m0 14h10v2h2v14h-10v-2h-2v-6h2v-2h6v-2h-8v-4zm4 10v2h4v-2h-4z"/>
		<path id="b" d="m0 8h4v6h6v2h2v12h-2v2h-10v-22zm4 10v8h4v-8h-4z"/>
		<path id="e" d="m2 14h8v2h2v8h-8v2h8v4h-10v-2h-2v-12h2v-2zm2 4v2h4v-2h-4z"/>
		<path id="i" d="m0 8h4v4h-4v-4zm0 6h4v16h-4v-16z"/>
		<path id="l" d="m0 8h4v22h-4v-22z"/>
		<path id="o" d="m2 14h8v2h2v12h-2v2h-8v-2h-2v-12h2v-2zm2 4v8h4v-8h-4z"/>
		<path id="p" d="m2 14h8v2h2v12h-2v2h-6v6h-4v-20h2v-2zm2 4v8h4v-8h-4z"/>
		<path id="r" d="m0 14h4v2h2v-2h6v4h-6v2h-2v10h-4v-16z"/>
		<path id="s" d="m2 14h10v4h-8v2h6v2h2v6h-2v2h-10v-4h8v-2h-6v-2h-2v-6h2v-2z"/>
		<path id="t" d="m2 8h4v6h6v4h-6v8h6v4h-8v-2h-2v-10h-2v-4h2v-6z"/>
	</defs>
	<g fill="rgba(0,0,0,0.3)">
		<g transform="translate(7,2)">
			<use href="#p" x="0"/>
			<use href="#r" x="14"/>
			<use href="#o" x="28"/>
			<use href="#b" x="42"/>
			<use href="#a" x="56"/>
			<use href="#b" x="70"/>
			<use href="#i" x="84"/>
			<use href="#l" x="90"/>
			<use href="#i" x="96"/>
			<use href="#t" x="102"/>
			<use href="#i" x="116"/>
			<use href="#e" x="122"/>
			<use href="#s" x="136"/>
		</g>
	</g>
	<g>
		<g fill="#4BC292FF" transform="translate(5,0)">
			<g>
				<g>
					<use href="#p" x="0"/>
					<use href="#i" x="84"/>
					<use href="#s" x="136"/>
					<animateMotion path="m0 0 a0.6 0.6 0 0 1 1.2 0 a0.6 0.6 0 0 1 -1.2 0" dur="2.4" begin="-2.4" repeatCount="indefinite"/>
				</g>
				<animateMotion path="m0 0 a0.6 0.6 0 0 0 -1.2 0 a0.6 0.6 0 0 0 1.2 0" dur="2.4" begin="-2.4" repeatCount="indefinite"/>
			</g>
			<g>
				<g>
					<use href="#r" x="14"/>
					<use href="#l" x="90"/>
					<animateMotion path="m0 0 a0.6 0.6 0 0 1 1.2 0 a0.6 0.6 0 0 1 -1.2 0" dur="2.4" begin="-2" repeatCount="indefinite"/>
				</g>
				<animateMotion path="m0 0 a0.6 0.6 0 0 0 -1.2 0 a0.6 0.6 0 0 0 1.2 0" dur="2.4" begin="-2" repeatCount="indefinite"/>
			</g>
			<g>
				<g>
					<use href="#o" x="28"/>
					<use href="#i" x="96"/>
					<animateMotion path="m0 0 a0.6 0.6 0 0 1 1.2 0 a0.6 0.6 0 0 1 -1.2 0" dur="2.4" begin="-1.6" repeatCount="indefinite"/>
				</g>
				<animateMotion path="m0 0 a0.6 0.6 0 0 0 -1.2 0 a0.6 0.6 0 0 0 1.2 0" dur="2.4" begin="-1.6" repeatCount="indefinite"/>
			</g>
			<g>
				<g>
					<use href="#b" x="42"/>
					<use href="#t" x="102"/>
					<animateMotion path="m0 0 a0.6 0.6 0 0 1 1.2 0 a0.6 0.6 0 0 1 -1.2 0" dur="2.4" begin="-1.2" repeatCount="indefinite"/>
				</g>
				<animateMotion path="m0 0 a0.6 0.6 0 0 0 -1.2 0 a0.6 0.6 0 0 0 1.2 0" dur="2.4" begin="-1.2" repeatCount="indefinite"/>
			</g>
			<g>
				<g>
					<use href="#a" x="56"/>
					<use href="#i" x="116"/>
					<animateMotion path="m0 0 a0.6 0.6 0 0 1 1.2 0 a0.6 0.6 0 0 1 -1.2 0" dur="2.4" begin="-0.8" repeatCount="indefinite"/>
				</g>
				<animateMotion path="m0 0 a0.6 0.6 0 0 0 -1.2 0 a0.6 0.6 0 0 0 1.2 0" dur="2.4" begin="-0.8" repeatCount="indefinite"/>
			</g>
			<g>
				<g>
					<use href="#b" x="70"/>
					<use href="#e" x="122"/>
					<animateMotion path="m0 0 a0.6 0.6 0 0 1 1.2 0 a0.6 0.6 0 0 1 -1.2 0" dur="2.4" begin="-0.4" repeatCount="indefinite"/>
				</g>
				<animateMotion path="m0 0 a0.6 0.6 0 0 0 -1.2 0 a0.6 0.6 0 0 0 1.2 0" dur="2.4" begin="-0.4" repeatCount="indefinite"/>
			</g>
		</g>
	</g>
</svg>