<!-- Generated by balatro_text_to_svg.py - https://github.com/Breezebuilder/Steamodded-Wiki/blob/dev/Assets/Scripts/balatro_text_to_svg.py -->
<!--
	 {s:0.8}({V:1,s:0.8}lvl.2{s:0.8}){} Level up
	 (lvl.2) Level up
-->

<svg xmlns="http://www.w3.org/2000/svg" height="128" viewBox="0 0 177 40">
	<defs>
		<path id="parenleft" d="m2 8h6v4h-4v18h4v4h-6v-2h-2v-22h2v-2z"/>
		<path id="parenright" d="m0 8h6v2h2v22h-2v2h-6v-4h4v-18h-4v-4z"/>
		<path id="period" d="m0 26h4v4h-4v-4z"/>
		<path id="two" d="m2 8h8v2h2v10h-2v2h-2v2h-2v2h6v4h-12v-6h2v-2h2v-2h2v-2h2v-6h-4v2h-4v-4h2v-2z"/>
		<path id="L" d="m0 8h4v18h8v4h-10v-2h-2v-20z"/>
		<path id="e" d="m2 14h8v2h2v8h-8v2h8v4h-10v-2h-2v-12h2v-2zm2 4v2h4v-2h-4z"/>
		<path id="l" d="m0 8h4v22h-4v-22z"/>
		<path id="p" d="m2 14h8v2h2v12h-2v2h-6v6h-4v-20h2v-2zm2 4v8h4v-8h-4z"/>
		<path id="u" d="m0 14h4v12h4v-12h4v14h-2v2h-8v-2h-2v-14z"/>
		<path id="v" d="m0 14h4v10h4v-10h4v12h-2v2h-2v2h-4v-2h-2v-2h-2v-12z"/>
	</defs>
	<g fill="rgba(0,0,0,0.3)">
		<g transform="translate(6.6,5.6) scale(0.8)">
			<use href="#parenleft" x="0"/>
		</g>
		<g transform="translate(14.6,5.6) scale(0.8)">
			<use href="#l" x="0"/>
			<use href="#v" x="6"/>
			<use href="#l" x="20"/>
			<use href="#period" x="26"/>
			<use href="#two" x="32"/>
		</g>
		<g transform="translate(51.4,5.6) scale(0.8)">
			<use href="#parenright" x="0"/>
		</g>
		<g transform="translate(59.8,2)">
			<use href="#L" x="12"/>
			<use href="#e" x="26"/>
			<use href="#v" x="40"/>
			<use href="#e" x="54"/>
			<use href="#l" x="68"/>
			<use href="#u" x="86"/>
			<use href="#p" x="100"/>
		</g>
	</g>
	<g>
		<g fill="#4F6367FF" transform="translate(5,4) scale(0.8)">
			<use href="#parenleft" x="0"/>
		</g>
		<g fill="#89A4FF" transform="translate(13,4) scale(0.8)">
			<use href="#l" x="0"/>
			<use href="#v" x="6"/>
			<use href="#l" x="20"/>
			<use href="#period" x="26"/>
			<use href="#two" x="32"/>
		</g>
		<g fill="#4F6367FF" transform="translate(49.8,4) scale(0.8)">
			<use href="#parenright" x="0"/>
		</g>
		<g fill="#4F6367FF" transform="translate(57.8,0)">
			<use href="#L" x="12"/>
			<use href="#e" x="26"/>
			<use href="#v" x="40"/>
			<use href="#e" x="54"/>
			<use href="#l" x="68"/>
			<use href="#u" x="86"/>
			<use href="#p" x="100"/>
		</g>
	</g>
</svg>