<svg xmlns="http://www.w3.org/2000/svg"
    width="91.5" height="38.375"
    viewBox="0 -28.125 91.5 38.375">

    <!-- Shadow -->
    <g transform="translate(4,4)"
       fill="black" opacity="0.5">
        <g transform="translate(0,0) scale(0.048828125,-0.048828125)"><path d="M0 576H320V512H384V256H320V192H384V-128H256V128H192V192H128V-128H0ZM128 448V320H256V448Z" /></g><g transform="translate(21.875,0) scale(0.048828125,-0.048828125)"><path d="M0 384H320V320H384V-128H64V-64H0V128H64V192H256V256H0ZM128 64V0H256V64Z" /></g><g transform="translate(43.75,0) scale(0.048828125,-0.048828125)"><path d="M0 384H128V320H192V384H384V256H192V192H128V-128H0Z" /></g><g transform="translate(65.625,0) scale(0.048828125,-0.048828125)"><path d="M64 384H320V320H384V64H128V0H384V-128H64V-64H0V320H64ZM128 256V192H256V256Z" /></g>
    </g>

    <!-- Text -->
    <g fill="#FE5F55">
        <g transform="translate(0,0) scale(0.048828125,-0.048828125)"><path d="M0 576H320V512H384V256H320V192H384V-128H256V128H192V192H128V-128H0ZM128 448V320H256V448Z" /></g><g transform="translate(21.875,0) scale(0.048828125,-0.048828125)"><path d="M0 384H320V320H384V-128H64V-64H0V128H64V192H256V256H0ZM128 64V0H256V64Z" /></g><g transform="translate(43.75,0) scale(0.048828125,-0.048828125)"><path d="M0 384H128V320H192V384H384V256H192V192H128V-128H0Z" /></g><g transform="translate(65.625,0) scale(0.048828125,-0.048828125)"><path d="M64 384H320V320H384V64H128V0H384V-128H64V-64H0V320H64ZM128 256V192H256V256Z" /></g>
    </g>

</svg>
