<svg xmlns="http://www.w3.org/2000/svg"
    width="122.482421875" height="44.80859375"
    viewBox="0 -39.2822265625 122.482421875 44.80859375">

    <g transform="translate(3,3.5)"
       fill="black" opacity="0.5">
        <g transform="translate(0,0) scale(0.0244140625,-0.0244140625)"><path d="M1456 1409Q1441 1367 1441 1286Q1441 1256 1443.0 1197.0Q1445 1138 1445 1108Q1445 1008 1427.5 810.0Q1410 612 1410 512Q1410 436 1421.0 284.0Q1432 132 1432 55Q1432 14 1404.5 -14.0Q1377 -42 1336 -42Q1296 -42 1268.0 -14.0Q1240 14 1240 55Q1240 132 1229.0 284.0Q1218 436 1218 512Q1218 585 1223 660Q1052 657 800 609L380 527Q380 437 362.0 271.5Q344 106 344 15Q344 -26 316.5 -54.5Q289 -83 248 -83Q207 -83 179.5 -54.5Q152 -26 152 15Q152 121 169.5 331.5Q187 542 187 648Q187 703 183.0 814.0Q179 925 179 981Q179 1060 189.0 1218.5Q199 1377 199 1456Q199 1498 226.5 1526.0Q254 1554 295 1554Q336 1554 363.5 1526.0Q391 1498 391 1456Q391 1376 380.5 1216.5Q370 1057 370 977L376 724L805 805Q1062 853 1238 855Q1249 998 1249 1286Q1249 1362 1274 1440Q1307 1547 1367 1547Q1405 1547 1435.0 1519.5Q1465 1492 1465 1450Q1465 1435 1456 1409Z" /></g><g transform="translate(38.4033203125,0) scale(0.0244140625,-0.0244140625)"><path d="M606 -46Q380 -46 240 67Q87 192 87 417Q87 677 213 853Q350 1045 579 1045Q745 1045 850 989Q979 920 979 777Q979 677 866 595Q816 559 654 483L272 302Q328 219 411.5 177.0Q495 135 606 135Q675 135 768 161Q886 194 920.0 247.5Q954 301 993 301Q1028 301 1055.5 274.5Q1083 248 1083 213Q1083 102 904 22Q751 -46 606 -46ZM579 865Q457 865 376.0 770.5Q295 676 255 486L562 632Q743 720 820 785Q734 865 579 865Z" /></g><g transform="translate(65.7958984375,0) scale(0.0244140625,-0.0244140625)"><path d="M393 786 378 289Q378 210 370 57Q360 -43 272 -43Q174 -43 174 59Q174 180 185.0 422.5Q196 665 196 786Q196 944 201.0 1147.5Q206 1351 206 1509Q206 1609 304 1609Q403 1609 403 1509Q403 1351 398.0 1147.5Q393 944 393 786Z" /></g><g transform="translate(79.4921875,0) scale(0.0244140625,-0.0244140625)"><path d="M393 786 378 289Q378 210 370 57Q360 -43 272 -43Q174 -43 174 59Q174 180 185.0 422.5Q196 665 196 786Q196 944 201.0 1147.5Q206 1351 206 1509Q206 1609 304 1609Q403 1609 403 1509Q403 1351 398.0 1147.5Q393 944 393 786Z" /></g><g transform="translate(93.1884765625,0) scale(0.0244140625,-0.0244140625)"><path d="M514 -59Q346 -59 225 65Q90 203 83 436Q77 662 197 834Q337 1037 587 1037Q787 1037 890 854Q972 706 969 498Q966 276 853 119Q725 -59 514 -59ZM574 834Q427 835 345 694Q280 581 280 436Q280 291 359 210Q425 143 514 143Q618 143 693 219Q778 303 783 446Q797 833 574 834Z" /></g>
    </g>

    <g fill="#4F6367">
        <g transform="translate(0,0) scale(0.0244140625,-0.0244140625)"><path d="M1456 1409Q1441 1367 1441 1286Q1441 1256 1443.0 1197.0Q1445 1138 1445 1108Q1445 1008 1427.5 810.0Q1410 612 1410 512Q1410 436 1421.0 284.0Q1432 132 1432 55Q1432 14 1404.5 -14.0Q1377 -42 1336 -42Q1296 -42 1268.0 -14.0Q1240 14 1240 55Q1240 132 1229.0 284.0Q1218 436 1218 512Q1218 585 1223 660Q1052 657 800 609L380 527Q380 437 362.0 271.5Q344 106 344 15Q344 -26 316.5 -54.5Q289 -83 248 -83Q207 -83 179.5 -54.5Q152 -26 152 15Q152 121 169.5 331.5Q187 542 187 648Q187 703 183.0 814.0Q179 925 179 981Q179 1060 189.0 1218.5Q199 1377 199 1456Q199 1498 226.5 1526.0Q254 1554 295 1554Q336 1554 363.5 1526.0Q391 1498 391 1456Q391 1376 380.5 1216.5Q370 1057 370 977L376 724L805 805Q1062 853 1238 855Q1249 998 1249 1286Q1249 1362 1274 1440Q1307 1547 1367 1547Q1405 1547 1435.0 1519.5Q1465 1492 1465 1450Q1465 1435 1456 1409Z" /></g><g transform="translate(38.4033203125,0) scale(0.0244140625,-0.0244140625)"><path d="M606 -46Q380 -46 240 67Q87 192 87 417Q87 677 213 853Q350 1045 579 1045Q745 1045 850 989Q979 920 979 777Q979 677 866 595Q816 559 654 483L272 302Q328 219 411.5 177.0Q495 135 606 135Q675 135 768 161Q886 194 920.0 247.5Q954 301 993 301Q1028 301 1055.5 274.5Q1083 248 1083 213Q1083 102 904 22Q751 -46 606 -46ZM579 865Q457 865 376.0 770.5Q295 676 255 486L562 632Q743 720 820 785Q734 865 579 865Z" /></g><g transform="translate(65.7958984375,0) scale(0.0244140625,-0.0244140625)"><path d="M393 786 378 289Q378 210 370 57Q360 -43 272 -43Q174 -43 174 59Q174 180 185.0 422.5Q196 665 196 786Q196 944 201.0 1147.5Q206 1351 206 1509Q206 1609 304 1609Q403 1609 403 1509Q403 1351 398.0 1147.5Q393 944 393 786Z" /></g><g transform="translate(79.4921875,0) scale(0.0244140625,-0.0244140625)"><path d="M393 786 378 289Q378 210 370 57Q360 -43 272 -43Q174 -43 174 59Q174 180 185.0 422.5Q196 665 196 786Q196 944 201.0 1147.5Q206 1351 206 1509Q206 1609 304 1609Q403 1609 403 1509Q403 1351 398.0 1147.5Q393 944 393 786Z" /></g><g transform="translate(93.1884765625,0) scale(0.0244140625,-0.0244140625)"><path d="M514 -59Q346 -59 225 65Q90 203 83 436Q77 662 197 834Q337 1037 587 1037Q787 1037 890 854Q972 706 969 498Q966 276 853 119Q725 -59 514 -59ZM574 834Q427 835 345 694Q280 581 280 436Q280 291 359 210Q425 143 514 143Q618 143 693 219Q778 303 783 446Q797 833 574 834Z" /></g>
    </g>

</svg>