<!-- Generated by balatro_text_to_svg.py - https://github.com/Breezebuilder/Steamodded-Wiki/blob/dev/Assets/Scripts/balatro_text_to_svg.py -->
<!--
	 {C:spectral}Spectral{} card
	 Spectral card
-->

<svg xmlns="http://www.w3.org/2000/svg" height="128" viewBox="0 0 182 40">
	<defs>
		<path id="S" d="m2 8h10v4h-8v4h6v2h2v10h-2v2h-10v-4h8v-6h-6v-2h-2v-8h2v-2z"/>
		<path id="a" d="m0 14h10v2h2v14h-10v-2h-2v-6h2v-2h6v-2h-8v-4zm4 10v2h4v-2h-4z"/>
		<path id="c" d="m2 14h10v4h-8v8h8v4h-10v-2h-2v-12h2v-2z"/>
		<path id="d" d="m8 8h4v22h-10v-2h-2v-12h2v-2h6v-6zm-4 10v8h4v-8h-4z"/>
		<path id="e" d="m2 14h8v2h2v8h-8v2h8v4h-10v-2h-2v-12h2v-2zm2 4v2h4v-2h-4z"/>
		<path id="l" d="m0 8h4v22h-4v-22z"/>
		<path id="p" d="m2 14h8v2h2v12h-2v2h-6v6h-4v-20h2v-2zm2 4v8h4v-8h-4z"/>
		<path id="r" d="m0 14h4v2h2v-2h6v4h-6v2h-2v10h-4v-16z"/>
		<path id="t" d="m2 8h4v6h6v4h-6v8h6v4h-8v-2h-2v-10h-2v-4h2v-6z"/>
	</defs>
	<g fill="rgba(0,0,0,0.3)">
		<g transform="translate(7,2)">
			<use href="#S" x="0"/>
			<use href="#p" x="14"/>
			<use href="#e" x="28"/>
			<use href="#c" x="42"/>
			<use href="#t" x="56"/>
			<use href="#r" x="70"/>
			<use href="#a" x="84"/>
			<use href="#l" x="98"/>
		</g>
		<g transform="translate(111,2)">
			<use href="#c" x="12"/>
			<use href="#a" x="26"/>
			<use href="#r" x="40"/>
			<use href="#d" x="54"/>
		</g>
	</g>
	<g>
		<g fill="#4584FAFF" transform="translate(5,0)">
			<use href="#S" x="0"/>
			<use href="#p" x="14"/>
			<use href="#e" x="28"/>
			<use href="#c" x="42"/>
			<use href="#t" x="56"/>
			<use href="#r" x="70"/>
			<use href="#a" x="84"/>
			<use href="#l" x="98"/>
		</g>
		<g fill="#4F6367FF" transform="translate(109,0)">
			<use href="#c" x="12"/>
			<use href="#a" x="26"/>
			<use href="#r" x="40"/>
			<use href="#d" x="54"/>
		</g>
	</g>
</svg>