<svg xmlns="http://www.w3.org/2000/svg"
    width="410.3" height="54.35000000000001"
    viewBox="0 -40.150000000000006 410.3 54.35000000000001">

    <g transform="translate(3,3.5)"
       fill="black" opacity="0.3">
        <g transform="translate(0,0) scale(0.05,-0.05)"><path d="M91 0V741H239V448H519V741H666V0H519V320H239V0Z" /></g><g transform="translate(37.85,0) scale(0.05,-0.05)"><path d="M323 -14Q245 -14 182.0 21.0Q119 56 81.5 122.0Q44 188 44 280Q44 348 65.5 402.0Q87 456 124.5 494.5Q162 533 208.5 553.5Q255 574 305 574Q382 574 434.0 539.5Q486 505 512.5 444.5Q539 384 539 306Q539 286 537.0 267.5Q535 249 532 238H187Q193 193 214.0 162.0Q235 131 268.0 115.5Q301 100 343 100Q377 100 407.0 109.5Q437 119 468 138L518 48Q477 20 426.0 3.0Q375 -14 323 -14ZM184 337H413Q413 393 387.5 426.5Q362 460 307 460Q278 460 252.0 446.5Q226 433 208.0 405.5Q190 378 184 337Z" /></g><g transform="translate(66.9,0) scale(0.05,-0.05)"><path d="M218 -14Q166 -14 136.0 7.5Q106 29 92.5 67.5Q79 106 79 157V798H226V151Q226 126 235.5 116.0Q245 106 255 106Q260 106 264.0 106.5Q268 107 275 108L293 -1Q280 -6 261.5 -10.0Q243 -14 218 -14Z" /></g><g transform="translate(82.65,0) scale(0.05,-0.05)"><path d="M218 -14Q166 -14 136.0 7.5Q106 29 92.5 67.5Q79 106 79 157V798H226V151Q226 126 235.5 116.0Q245 106 255 106Q260 106 264.0 106.5Q268 107 275 108L293 -1Q280 -6 261.5 -10.0Q243 -14 218 -14Z" /></g><g transform="translate(98.4,0) scale(0.05,-0.05)"><path d="M313 -14Q243 -14 181.5 21.0Q120 56 82.0 121.5Q44 187 44 280Q44 373 82.0 438.5Q120 504 181.5 539.0Q243 574 313 574Q366 574 414.0 554.0Q462 534 500.0 496.5Q538 459 560.0 404.5Q582 350 582 280Q582 187 544.0 121.5Q506 56 444.5 21.0Q383 -14 313 -14ZM313 106Q351 106 377.5 127.5Q404 149 417.5 188.0Q431 227 431 280Q431 333 417.5 372.0Q404 411 377.5 432.5Q351 454 313 454Q275 454 248.5 432.5Q222 411 208.5 372.0Q195 333 195 280Q195 227 208.5 188.0Q222 149 248.5 127.5Q275 106 313 106Z" /></g><g transform="translate(129.70000000000002,0) scale(0.05,-0.05)"><path d="M84 -214 53 -134Q111 -111 142.5 -74.0Q174 -37 174 7L169 112L221 25Q209 14 194.5 9.0Q180 4 164 4Q128 4 100.0 26.5Q72 49 72 91Q72 130 100.0 154.0Q128 178 168 178Q218 178 245.5 139.5Q273 101 273 33Q273 -55 224.0 -119.0Q175 -183 84 -214Z" /></g><g transform="translate(157.3,0) scale(0.05,-0.05)"><path d="M218 727Q273 721 342.0 718.0Q411 715 490 715Q539 715 591.5 717.0Q644 719 693.0 722.0Q742 725 780 729V596Q745 593 695.5 590.0Q646 587 592.5 585.5Q539 584 491 584Q413 584 346.0 587.0Q279 590 218 595ZM302 303Q295 277 290.0 252.0Q285 227 285 202Q285 154 333.5 123.0Q382 92 490 92Q558 92 621.0 97.0Q684 102 740.5 111.0Q797 120 841 132L842 -9Q798 -19 744.0 -26.5Q690 -34 627.5 -38.5Q565 -43 495 -43Q381 -43 304.0 -18.0Q227 7 189.0 54.5Q151 102 151 171Q151 215 158.0 251.0Q165 287 171 315Z" /></g><g transform="translate(207.3,0) scale(0.05,-0.05)"><path d="M577 743Q570 733 561.5 720.5Q553 708 545 696Q527 669 505.5 633.5Q484 598 461.0 558.5Q438 519 416.5 480.0Q395 441 376 408Q404 424 433.0 431.0Q462 438 491 438Q547 438 579.5 404.5Q612 371 615 308Q616 286 616.0 255.0Q616 224 616.5 193.0Q617 162 619 141Q622 112 640.5 99.5Q659 87 684 87Q716 87 742.5 106.0Q769 125 790.0 158.5Q811 192 826.5 234.5Q842 277 853 323L961 235Q935 150 895.0 85.5Q855 21 797.5 -14.5Q740 -50 663 -50Q608 -50 571.0 -30.5Q534 -11 516.0 20.5Q498 52 496 89Q494 116 493.5 149.0Q493 182 492.5 213.5Q492 245 490 265Q488 291 473.0 306.0Q458 321 431 321Q398 321 368.0 300.0Q338 279 313.5 245.0Q289 211 271 170Q261 148 250.0 118.0Q239 88 229.0 56.0Q219 24 210.0 -4.5Q201 -33 195 -53L54 -5Q73 45 100.5 109.5Q128 174 161.0 245.0Q194 316 228.0 386.0Q262 456 293.0 518.5Q324 581 348.5 627.5Q373 674 386 698Q396 718 409.0 743.0Q422 768 435 800Z" /></g><g transform="translate(257.3,0) scale(0.05,-0.05)"><path d="M448 699Q494 693 551.5 690.5Q609 688 668.5 688.5Q728 689 783.0 692.5Q838 696 878 700V571Q832 567 777.0 564.5Q722 562 664.0 562.0Q606 562 550.5 564.5Q495 567 448 571ZM528 272Q522 247 519.0 227.5Q516 208 516 188Q516 172 524.0 158.5Q532 145 548.5 135.5Q565 126 591.5 121.5Q618 117 656 117Q723 117 782.0 123.5Q841 130 907 143L909 8Q861 -1 798.5 -6.0Q736 -11 651 -11Q522 -11 459.0 32.5Q396 76 396 153Q396 182 400.5 213.5Q405 245 413 283ZM294 766Q290 756 285.0 738.0Q280 720 275.5 703.0Q271 686 269 677Q266 656 259.5 622.5Q253 589 246.5 547.5Q240 506 234.0 463.0Q228 420 224.5 380.0Q221 340 221 310Q221 296 221.5 278.0Q222 260 225 245Q232 262 240.0 279.0Q248 296 256.0 313.5Q264 331 270 347L332 298Q318 257 303.5 210.0Q289 163 277.5 121.5Q266 80 260 53Q258 42 256.5 28.0Q255 14 255 6Q255 -2 255.5 -13.5Q256 -25 257 -35L141 -43Q126 9 114.0 95.5Q102 182 102 284Q102 340 107.0 398.0Q112 456 119.0 509.5Q126 563 132.5 607.0Q139 651 144 680Q146 701 149.5 727.5Q153 754 154 778Z" /></g><g transform="translate(307.3,0) scale(0.05,-0.05)"><path d="M453 797Q445 771 439.5 745.5Q434 720 429 695Q424 671 417.5 640.0Q411 609 403.5 574.5Q396 540 387.5 505.0Q379 470 370.0 436.5Q361 403 353 375Q414 409 474.0 423.5Q534 438 601 438Q682 438 742.5 411.0Q803 384 836.5 336.0Q870 288 870 224Q870 140 831.5 82.0Q793 24 721.5 -9.0Q650 -42 550.5 -51.0Q451 -60 330 -47L295 82Q377 68 455.5 68.0Q534 68 597.0 83.0Q660 98 697.5 131.5Q735 165 735 220Q735 265 697.0 297.5Q659 330 586 330Q499 330 426.5 300.0Q354 270 309 213Q302 202 295.5 192.0Q289 182 281 169L163 211Q191 265 215.0 334.0Q239 403 258.0 473.0Q277 543 289.0 603.5Q301 664 306 702Q311 734 312.0 756.5Q313 779 311 803ZM104 680Q152 672 208.0 666.5Q264 661 311 661Q359 661 416.5 664.0Q474 667 538.0 673.0Q602 679 666.5 688.5Q731 698 793 711L795 592Q747 584 686.5 576.0Q626 568 560.0 561.5Q494 555 430.0 551.0Q366 547 312 547Q254 547 201.5 549.5Q149 552 104 556Z" /></g><g transform="translate(357.3,0) scale(0.05,-0.05)"><path d="M391 614Q434 610 477.5 607.5Q521 605 566 605Q658 605 749.0 613.0Q840 621 917 638V513Q839 502 748.0 495.5Q657 489 566 489Q522 489 478.5 490.5Q435 492 391 495ZM771 783Q769 769 767.5 752.0Q766 735 765 718Q764 702 763.0 675.0Q762 648 762.0 614.5Q762 581 762 544Q762 476 764.0 416.5Q766 357 769.0 306.5Q772 256 774.5 214.0Q777 172 777 136Q777 97 766.5 64.0Q756 31 733.0 6.0Q710 -19 672.5 -32.5Q635 -46 581 -46Q477 -46 417.0 -4.0Q357 38 357 117Q357 168 384.0 206.5Q411 245 461.0 266.5Q511 288 579 288Q650 288 708.0 273.0Q766 258 814.0 233.0Q862 208 899.5 178.5Q937 149 967 122L898 17Q841 71 787.0 110.0Q733 149 679.5 170.0Q626 191 569 191Q527 191 500.5 175.0Q474 159 474 130Q474 100 501.0 86.0Q528 72 567 72Q598 72 616.0 82.5Q634 93 641.5 113.5Q649 134 649 163Q649 189 647.0 231.0Q645 273 642.5 325.0Q640 377 638.0 433.5Q636 490 636 544Q636 601 635.5 647.5Q635 694 635 717Q635 728 633.0 748.0Q631 768 628 783ZM283 772Q280 762 274.5 744.0Q269 726 265.5 709.0Q262 692 260 683Q255 662 249.0 626.5Q243 591 236.5 546.5Q230 502 224.0 455.5Q218 409 215.0 367.5Q212 326 212 296Q212 281 212.5 263.5Q213 246 216 231Q223 249 230.5 266.0Q238 283 246.0 300.0Q254 317 261 334L322 284Q308 243 293.5 198.0Q279 153 267.5 113.0Q256 73 250 46Q248 36 246.5 22.0Q245 8 245 -1Q245 -9 245.5 -20.5Q246 -32 247 -42L134 -51Q118 2 106.0 84.5Q94 167 94 269Q94 325 99.0 386.5Q104 448 110.5 505.0Q117 562 124.0 609.5Q131 657 135 686Q138 707 141.0 733.5Q144 760 145 784Z" /></g>
    </g>

    <g fill="#4F6367">
        <g transform="translate(0,0) scale(0.05,-0.05)"><path d="M91 0V741H239V448H519V741H666V0H519V320H239V0Z" /></g><g transform="translate(37.85,0) scale(0.05,-0.05)"><path d="M323 -14Q245 -14 182.0 21.0Q119 56 81.5 122.0Q44 188 44 280Q44 348 65.5 402.0Q87 456 124.5 494.5Q162 533 208.5 553.5Q255 574 305 574Q382 574 434.0 539.5Q486 505 512.5 444.5Q539 384 539 306Q539 286 537.0 267.5Q535 249 532 238H187Q193 193 214.0 162.0Q235 131 268.0 115.5Q301 100 343 100Q377 100 407.0 109.5Q437 119 468 138L518 48Q477 20 426.0 3.0Q375 -14 323 -14ZM184 337H413Q413 393 387.5 426.5Q362 460 307 460Q278 460 252.0 446.5Q226 433 208.0 405.5Q190 378 184 337Z" /></g><g transform="translate(66.9,0) scale(0.05,-0.05)"><path d="M218 -14Q166 -14 136.0 7.5Q106 29 92.5 67.5Q79 106 79 157V798H226V151Q226 126 235.5 116.0Q245 106 255 106Q260 106 264.0 106.5Q268 107 275 108L293 -1Q280 -6 261.5 -10.0Q243 -14 218 -14Z" /></g><g transform="translate(82.65,0) scale(0.05,-0.05)"><path d="M218 -14Q166 -14 136.0 7.5Q106 29 92.5 67.5Q79 106 79 157V798H226V151Q226 126 235.5 116.0Q245 106 255 106Q260 106 264.0 106.5Q268 107 275 108L293 -1Q280 -6 261.5 -10.0Q243 -14 218 -14Z" /></g><g transform="translate(98.4,0) scale(0.05,-0.05)"><path d="M313 -14Q243 -14 181.5 21.0Q120 56 82.0 121.5Q44 187 44 280Q44 373 82.0 438.5Q120 504 181.5 539.0Q243 574 313 574Q366 574 414.0 554.0Q462 534 500.0 496.5Q538 459 560.0 404.5Q582 350 582 280Q582 187 544.0 121.5Q506 56 444.5 21.0Q383 -14 313 -14ZM313 106Q351 106 377.5 127.5Q404 149 417.5 188.0Q431 227 431 280Q431 333 417.5 372.0Q404 411 377.5 432.5Q351 454 313 454Q275 454 248.5 432.5Q222 411 208.5 372.0Q195 333 195 280Q195 227 208.5 188.0Q222 149 248.5 127.5Q275 106 313 106Z" /></g><g transform="translate(129.70000000000002,0) scale(0.05,-0.05)"><path d="M84 -214 53 -134Q111 -111 142.5 -74.0Q174 -37 174 7L169 112L221 25Q209 14 194.5 9.0Q180 4 164 4Q128 4 100.0 26.5Q72 49 72 91Q72 130 100.0 154.0Q128 178 168 178Q218 178 245.5 139.5Q273 101 273 33Q273 -55 224.0 -119.0Q175 -183 84 -214Z" /></g><g transform="translate(157.3,0) scale(0.05,-0.05)"><path d="M218 727Q273 721 342.0 718.0Q411 715 490 715Q539 715 591.5 717.0Q644 719 693.0 722.0Q742 725 780 729V596Q745 593 695.5 590.0Q646 587 592.5 585.5Q539 584 491 584Q413 584 346.0 587.0Q279 590 218 595ZM302 303Q295 277 290.0 252.0Q285 227 285 202Q285 154 333.5 123.0Q382 92 490 92Q558 92 621.0 97.0Q684 102 740.5 111.0Q797 120 841 132L842 -9Q798 -19 744.0 -26.5Q690 -34 627.5 -38.5Q565 -43 495 -43Q381 -43 304.0 -18.0Q227 7 189.0 54.5Q151 102 151 171Q151 215 158.0 251.0Q165 287 171 315Z" /></g><g transform="translate(207.3,0) scale(0.05,-0.05)"><path d="M577 743Q570 733 561.5 720.5Q553 708 545 696Q527 669 505.5 633.5Q484 598 461.0 558.5Q438 519 416.5 480.0Q395 441 376 408Q404 424 433.0 431.0Q462 438 491 438Q547 438 579.5 404.5Q612 371 615 308Q616 286 616.0 255.0Q616 224 616.5 193.0Q617 162 619 141Q622 112 640.5 99.5Q659 87 684 87Q716 87 742.5 106.0Q769 125 790.0 158.5Q811 192 826.5 234.5Q842 277 853 323L961 235Q935 150 895.0 85.5Q855 21 797.5 -14.5Q740 -50 663 -50Q608 -50 571.0 -30.5Q534 -11 516.0 20.5Q498 52 496 89Q494 116 493.5 149.0Q493 182 492.5 213.5Q492 245 490 265Q488 291 473.0 306.0Q458 321 431 321Q398 321 368.0 300.0Q338 279 313.5 245.0Q289 211 271 170Q261 148 250.0 118.0Q239 88 229.0 56.0Q219 24 210.0 -4.5Q201 -33 195 -53L54 -5Q73 45 100.5 109.5Q128 174 161.0 245.0Q194 316 228.0 386.0Q262 456 293.0 518.5Q324 581 348.5 627.5Q373 674 386 698Q396 718 409.0 743.0Q422 768 435 800Z" /></g><g transform="translate(257.3,0) scale(0.05,-0.05)"><path d="M448 699Q494 693 551.5 690.5Q609 688 668.5 688.5Q728 689 783.0 692.5Q838 696 878 700V571Q832 567 777.0 564.5Q722 562 664.0 562.0Q606 562 550.5 564.5Q495 567 448 571ZM528 272Q522 247 519.0 227.5Q516 208 516 188Q516 172 524.0 158.5Q532 145 548.5 135.5Q565 126 591.5 121.5Q618 117 656 117Q723 117 782.0 123.5Q841 130 907 143L909 8Q861 -1 798.5 -6.0Q736 -11 651 -11Q522 -11 459.0 32.5Q396 76 396 153Q396 182 400.5 213.5Q405 245 413 283ZM294 766Q290 756 285.0 738.0Q280 720 275.5 703.0Q271 686 269 677Q266 656 259.5 622.5Q253 589 246.5 547.5Q240 506 234.0 463.0Q228 420 224.5 380.0Q221 340 221 310Q221 296 221.5 278.0Q222 260 225 245Q232 262 240.0 279.0Q248 296 256.0 313.5Q264 331 270 347L332 298Q318 257 303.5 210.0Q289 163 277.5 121.5Q266 80 260 53Q258 42 256.5 28.0Q255 14 255 6Q255 -2 255.5 -13.5Q256 -25 257 -35L141 -43Q126 9 114.0 95.5Q102 182 102 284Q102 340 107.0 398.0Q112 456 119.0 509.5Q126 563 132.5 607.0Q139 651 144 680Q146 701 149.5 727.5Q153 754 154 778Z" /></g><g transform="translate(307.3,0) scale(0.05,-0.05)"><path d="M453 797Q445 771 439.5 745.5Q434 720 429 695Q424 671 417.5 640.0Q411 609 403.5 574.5Q396 540 387.5 505.0Q379 470 370.0 436.5Q361 403 353 375Q414 409 474.0 423.5Q534 438 601 438Q682 438 742.5 411.0Q803 384 836.5 336.0Q870 288 870 224Q870 140 831.5 82.0Q793 24 721.5 -9.0Q650 -42 550.5 -51.0Q451 -60 330 -47L295 82Q377 68 455.5 68.0Q534 68 597.0 83.0Q660 98 697.5 131.5Q735 165 735 220Q735 265 697.0 297.5Q659 330 586 330Q499 330 426.5 300.0Q354 270 309 213Q302 202 295.5 192.0Q289 182 281 169L163 211Q191 265 215.0 334.0Q239 403 258.0 473.0Q277 543 289.0 603.5Q301 664 306 702Q311 734 312.0 756.5Q313 779 311 803ZM104 680Q152 672 208.0 666.5Q264 661 311 661Q359 661 416.5 664.0Q474 667 538.0 673.0Q602 679 666.5 688.5Q731 698 793 711L795 592Q747 584 686.5 576.0Q626 568 560.0 561.5Q494 555 430.0 551.0Q366 547 312 547Q254 547 201.5 549.5Q149 552 104 556Z" /></g><g transform="translate(357.3,0) scale(0.05,-0.05)"><path d="M391 614Q434 610 477.5 607.5Q521 605 566 605Q658 605 749.0 613.0Q840 621 917 638V513Q839 502 748.0 495.5Q657 489 566 489Q522 489 478.5 490.5Q435 492 391 495ZM771 783Q769 769 767.5 752.0Q766 735 765 718Q764 702 763.0 675.0Q762 648 762.0 614.5Q762 581 762 544Q762 476 764.0 416.5Q766 357 769.0 306.5Q772 256 774.5 214.0Q777 172 777 136Q777 97 766.5 64.0Q756 31 733.0 6.0Q710 -19 672.5 -32.5Q635 -46 581 -46Q477 -46 417.0 -4.0Q357 38 357 117Q357 168 384.0 206.5Q411 245 461.0 266.5Q511 288 579 288Q650 288 708.0 273.0Q766 258 814.0 233.0Q862 208 899.5 178.5Q937 149 967 122L898 17Q841 71 787.0 110.0Q733 149 679.5 170.0Q626 191 569 191Q527 191 500.5 175.0Q474 159 474 130Q474 100 501.0 86.0Q528 72 567 72Q598 72 616.0 82.5Q634 93 641.5 113.5Q649 134 649 163Q649 189 647.0 231.0Q645 273 642.5 325.0Q640 377 638.0 433.5Q636 490 636 544Q636 601 635.5 647.5Q635 694 635 717Q635 728 633.0 748.0Q631 768 628 783ZM283 772Q280 762 274.5 744.0Q269 726 265.5 709.0Q262 692 260 683Q255 662 249.0 626.5Q243 591 236.5 546.5Q230 502 224.0 455.5Q218 409 215.0 367.5Q212 326 212 296Q212 281 212.5 263.5Q213 246 216 231Q223 249 230.5 266.0Q238 283 246.0 300.0Q254 317 261 334L322 284Q308 243 293.5 198.0Q279 153 267.5 113.0Q256 73 250 46Q248 36 246.5 22.0Q245 8 245 -1Q245 -9 245.5 -20.5Q246 -32 247 -42L134 -51Q118 2 106.0 84.5Q94 167 94 269Q94 325 99.0 386.5Q104 448 110.5 505.0Q117 562 124.0 609.5Q131 657 135 686Q138 707 141.0 733.5Q144 760 145 784Z" /></g>
    </g>

</svg>