<svg xmlns="http://www.w3.org/2000/svg"
    width="147.75" height="38.375"
    viewBox="0 -28.125 147.75 38.375">

    <!-- Shadow -->
    <g transform="translate(4,4)"
       fill="black" opacity="0.5">
        <g transform="translate(0,0) scale(0.048828125,-0.048828125)"><path d="M64 576H384V448H128V0H384V-128H64V-64H0V512H64Z" /></g><g transform="translate(21.875,0) scale(0.048828125,-0.048828125)"><path d="M64 384H320V320H384V-64H320V-128H64V-64H0V320H64ZM128 256V0H256V256Z" /></g><g transform="translate(43.75,0) scale(0.048828125,-0.048828125)"><path d="M0 384H448V320H512V-128H384V256H320V-128H192V256H128V-128H0Z" /></g><g transform="translate(71.875,0) scale(0.048828125,-0.048828125)"><path d="M0 384H448V320H512V-128H384V256H320V-128H192V256H128V-128H0Z" /></g><g transform="translate(100.0,0) scale(0.048828125,-0.048828125)"><path d="M64 384H320V320H384V-64H320V-128H64V-64H0V320H64ZM128 256V0H256V256Z" /></g><g transform="translate(121.875,0) scale(0.048828125,-0.048828125)"><path d="M0 384H320V320H384V-128H256V256H128V-128H0Z" /></g>
    </g>

    <!-- Text -->
    <g fill="#009DFF">
        <g transform="translate(0,0) scale(0.048828125,-0.048828125)"><path d="M64 576H384V448H128V0H384V-128H64V-64H0V512H64Z" /></g><g transform="translate(21.875,0) scale(0.048828125,-0.048828125)"><path d="M64 384H320V320H384V-64H320V-128H64V-64H0V320H64ZM128 256V0H256V256Z" /></g><g transform="translate(43.75,0) scale(0.048828125,-0.048828125)"><path d="M0 384H448V320H512V-128H384V256H320V-128H192V256H128V-128H0Z" /></g><g transform="translate(71.875,0) scale(0.048828125,-0.048828125)"><path d="M0 384H448V320H512V-128H384V256H320V-128H192V256H128V-128H0Z" /></g><g transform="translate(100.0,0) scale(0.048828125,-0.048828125)"><path d="M64 384H320V320H384V-64H320V-128H64V-64H0V320H64ZM128 256V0H256V256Z" /></g><g transform="translate(121.875,0) scale(0.048828125,-0.048828125)"><path d="M0 384H320V320H384V-128H256V256H128V-128H0Z" /></g>
    </g>

</svg>
