<svg xmlns="http://www.w3.org/2000/svg"
    width="132.25" height="41.5"
    viewBox="0 -38.0 132.25 41.5">

    <g transform="translate(3,3)"
       fill="black" opacity="0.5">
        <g transform="translate(0,0) scale(0.05,-0.05)"><path d="M675 0H524V308H241V0H90V714H241V434H524V714H675Z" /></g><g transform="translate(38.25,0) scale(0.05,-0.05)"><path d="M303 556Q416 556 482.0 491.5Q548 427 548 308V236H196Q198 173 233.5 137.0Q269 101 332 101Q385 101 428.0 111.5Q471 122 517 144V29Q477 9 432.5 -0.5Q388 -10 325 -10Q243 -10 180.0 20.5Q117 51 81.0 113.0Q45 175 45 269Q45 365 77.5 428.5Q110 492 168.0 524.0Q226 556 303 556ZM304 450Q261 450 232.5 422.0Q204 394 199 335H408Q407 385 382.0 417.5Q357 450 304 450Z" /></g><g transform="translate(67.8,0) scale(0.05,-0.05)"><path d="M227 0H78V760H227Z" /></g><g transform="translate(83.05,0) scale(0.05,-0.05)"><path d="M227 0H78V760H227Z" /></g><g transform="translate(98.3,0) scale(0.05,-0.05)"><path d="M574 274Q574 138 502.5 64.0Q431 -10 308 -10Q232 -10 172.5 23.0Q113 56 79.0 119.5Q45 183 45 274Q45 410 116.0 483.0Q187 556 311 556Q388 556 447.0 523.0Q506 490 540.0 427.5Q574 365 574 274ZM197 274Q197 193 223.5 151.5Q250 110 310 110Q369 110 395.5 151.5Q422 193 422 274Q422 355 395.5 395.5Q369 436 309 436Q250 436 223.5 395.5Q197 355 197 274Z" /></g>
    </g>

    <g fill="#4F6367">
        <g transform="translate(0,0) scale(0.05,-0.05)"><path d="M675 0H524V308H241V0H90V714H241V434H524V714H675Z" /></g><g transform="translate(38.25,0) scale(0.05,-0.05)"><path d="M303 556Q416 556 482.0 491.5Q548 427 548 308V236H196Q198 173 233.5 137.0Q269 101 332 101Q385 101 428.0 111.5Q471 122 517 144V29Q477 9 432.5 -0.5Q388 -10 325 -10Q243 -10 180.0 20.5Q117 51 81.0 113.0Q45 175 45 269Q45 365 77.5 428.5Q110 492 168.0 524.0Q226 556 303 556ZM304 450Q261 450 232.5 422.0Q204 394 199 335H408Q407 385 382.0 417.5Q357 450 304 450Z" /></g><g transform="translate(67.8,0) scale(0.05,-0.05)"><path d="M227 0H78V760H227Z" /></g><g transform="translate(83.05,0) scale(0.05,-0.05)"><path d="M227 0H78V760H227Z" /></g><g transform="translate(98.3,0) scale(0.05,-0.05)"><path d="M574 274Q574 138 502.5 64.0Q431 -10 308 -10Q232 -10 172.5 23.0Q113 56 79.0 119.5Q45 183 45 274Q45 410 116.0 483.0Q187 556 311 556Q388 556 447.0 523.0Q506 490 540.0 427.5Q574 365 574 274ZM197 274Q197 193 223.5 151.5Q250 110 310 110Q369 110 395.5 151.5Q422 193 422 274Q422 355 395.5 395.5Q369 436 309 436Q250 436 223.5 395.5Q197 355 197 274Z" /></g>
    </g>

</svg>