<!-- Generated by balatro_text_to_svg.py - https://github.com/Breezebuilder/Steamodded-Wiki/blob/dev/Assets/Scripts/balatro_text_to_svg.py -->
<!--
	 {X:mult,C:white}X0.5{}
	 X0.5
-->

<svg xmlns="http://www.w3.org/2000/svg" height="128" viewBox="0 0 66 40">
	<defs>
		<path id="period" d="m0 26h4v4h-4v-4z"/>
		<path id="zero" d="m2 8h8v2h2v18h-2v2h-8v-2h-2v-18h2v-2zm2 4v14h4v-14h-4z"/>
		<path id="five" d="m0 8h12v4h-8v4h6v2h2v10h-2v2h-10v-4h8v-6h-8v-12z"/>
		<path id="X" d="m0 8h4v6h2v2h2v-2h2v-6h4v8h-2v2h-2v2h2v2h2v8h-4v-6h-2v-2h-2v2h-2v6h-4v-8h2v-2h2v-2h-2v-2h-2v-8z"/>
	</defs>
	<g>
		<path d="m8 0h48l4 4v28l-4 4h-48l-4-4v-28z" fill="#FE5F55FF"/>
	</g>
	<g>
		<g fill="#FFFFFFFF" transform="translate(5,0)">
			<use href="#X" x="3.0"/>
			<use href="#zero" x="19.0"/>
			<use href="#period" x="33.0"/>
			<use href="#five" x="39.0"/>
		</g>
	</g>
</svg>