<svg xmlns="http://www.w3.org/2000/svg" height="128" viewBox="0 0 266 142">
	<defs>
		<style>
			.tooltip {
				pointer-events:none;
				opacity:0;
			}
			text:hover + g.tooltip {
				opacity:1;
			}
		</style>
		<path id="plus" d="m4 14h4v4h4v4h-4v4h-4v-4h-4v-4h4v-4z"/>
		<path id="one" d="m4 8h4v18h4v4h-12v-4h4v-12h-4v-4h4v-2z"/>
        <path id="B" d="m0 8h10v2h2v8h-2v2h2v8h-2v2h-10v-22zm4 4v4h4v-4h-4zm0 8v6h4v-6h-4z"/>
		<path id="C" d="m2 8h10v4h-8v14h8v4h-10v-2h-2v-18h2v-2z"/>
		<path id="a" d="m0 14h10v2h2v14h-10v-2h-2v-6h2v-2h6v-2h-8v-4zm4 10v2h4v-2h-4z"/>
		<path id="b" d="m0 8h4v6h6v2h2v12h-2v2h-10v-22zm4 10v8h4v-8h-4z"/>
		<path id="c" d="m2 14h10v4h-8v8h8v4h-10v-2h-2v-12h2v-2z"/>
		<path id="e" d="m2 14h8v2h2v8h-8v2h8v4h-10v-2h-2v-12h2v-2zm2 4v2h4v-2h-4z"/>
		<path id="l" d="m0 8h4v22h-4v-22z"/>
		<path id="m" d="m0 14h14v2h2v14h-4v-12h-2v12h-4v-12h-2v12h-4v-16z"/>
		<path id="n" d="m0 14h10v2h2v14h-4v-12h-4v12h-4v-16z"/>
		<path id="o" d="m2 14h8v2h2v12h-2v2h-8v-2h-2v-12h2v-2zm2 4v8h4v-8h-4z"/>
		<path id="r" d="m0 14h4v2h2v-2h6v4h-6v2h-2v10h-4v-16z"/>
		<path id="s" d="m2 14h10v4h-8v2h6v2h2v6h-2v2h-10v-4h8v-2h-6v-2h-2v-6h2v-2z"/>
		<path id="t" d="m2 8h4v6h6v4h-6v8h6v4h-8v-2h-2v-10h-2v-4h2v-6z"/>
		<path id="u" d="m0 14h4v12h4v-12h4v14h-2v2h-8v-2h-2v-14z"/>
		<path id="y" d="m0 14h4v12h4v-12h4v20h-2v2h-10v-4h8v-2h-6v-2h-2v-14z"/>
	</defs>
    <g fill="rgba(0,0,0,0.3)">
		<g transform="translate(63,106)">
			<use href="#C" x="0"/>
			<use href="#r" x="14"/>
			<use href="#y" x="28"/>
			<use href="#s" x="42"/>
			<use href="#t" x="56"/>
			<use href="#a" x="70"/>
			<use href="#l" x="84"/>
			<use href="#B" x="102"/>
			<use href="#a" x="116"/>
			<use href="#l" x="130"/>
			<use href="#l" x="136"/>
		</g>
	</g>
	<g>
		<g fill="#A782D1FF" transform="translate(61,104)">
			<use href="#C" x="0"/>
			<use href="#r" x="14"/>
			<use href="#y" x="28"/>
			<use href="#s" x="42"/>
			<use href="#t" x="56"/>
			<use href="#a" x="70"/>
			<use href="#l" x="84"/>
			<use href="#B" x="102"/>
			<use href="#a" x="116"/>
			<use href="#l" x="130"/>
			<use href="#l" x="136"/>
		</g>
	</g>
	<text font-family="m6x11plus,Courier New" fill="transparent">
		<tspan font-size="32" lengthAdjust="spacingAndGlyphs" x="58" y="130" textLength="1">{C:tarot,T:v_crystal_ball}</tspan><tspan font-size="32" xml:space="preserve" lengthAdjust="spacingAndGlyphs" x="61" y="130" textLength="142">Crystal Ball</tspan><tspan font-size="32" lengthAdjust="spacingAndGlyphs" x="204" y="130" textLength="1">{}</tspan>
	</text>
	<g class="tooltip">
		<g>
			<path d="m254 96v-3h6v-3h3v-5h3v-5h-3v6h-3v3h-6v3h-242v-3h-6v-3h-3v-6h-3v5h3v6h3v3h6v3z" fill="#919499"/>
			<path d="m12 0v3h-6v3h-3v6h-3v68h3v6h3v3h6v3h242v-3h6v-3h3v-6h3v-68h-3v-6h-3v-3h-6v-3z" fill="#dee2ea"/>
			<path d="m18 6v3h-6v3h-3v6h-3v56h3v6h3v3h6v3h230v-3h6v-3h3v-6h3v-56h-3v-6h-3v-3l-6 0.03v-3z" fill="#677b7e"/>
			<path d="m6 56h3v-6h3v-3h6v-3h230v3h6v3h3v6h3v18h-3v6h-3v3h-6v3h-230v-3h-6v-3h-3v-6h-3z" fill="#ffffff"/>
		</g>
		<g fill="#FFFFFFFF" transform="translate(56,4)">
			<use x="5" href="#C"/>
			<use x="19" href="#r"/>
			<use x="33" href="#y"/>
			<use x="47" href="#s"/>
			<use x="61" href="#t"/>
			<use x="75" href="#a"/>
			<use x="89" href="#l"/>
			<use x="107" href="#B"/>
			<use x="121" href="#a"/>
			<use x="135" href="#l"/>
			<use x="141" href="#l"/>
		</g>
		<g fill="#FF9A00FF" transform="translate(15,46)">
			<use href="#plus" x="0"/>
			<use href="#one" x="14"/>
		</g>
		<g fill="#4F6367FF" transform="translate(43,46)">
			<use href="#c" x="12"/>
			<use href="#o" x="26"/>
			<use href="#n" x="40"/>
			<use href="#s" x="54"/>
			<use href="#u" x="68"/>
			<use href="#m" x="82"/>
			<use href="#a" x="100"/>
			<use href="#b" x="114"/>
			<use href="#l" x="128"/>
			<use href="#e" x="134"/>
			<use href="#s" x="160"/>
			<use href="#l" x="174"/>
			<use href="#o" x="180"/>
			<use href="#t" x="194"/>
		</g>
		<text font-family="m6x11plus,Courier New" fill="transparent">
			<tspan font-size="32" xml:space="preserve" lengthAdjust="spacingAndGlyphs" x="60" y="32" textLength="142">Crystal Ball</tspan>
			<tspan font-size="32" lengthAdjust="spacingAndGlyphs" x="13" y="72" textLength="1">{C:attention}</tspan><tspan font-size="32" lengthAdjust="spacingAndGlyphs" x="15" y="72" textLength="28">+1</tspan><tspan font-size="32" lengthAdjust="spacingAndGlyphs" x="53" y="72" textLength="1">{}</tspan><tspan font-size="32" xml:space="preserve" lengthAdjust="spacingAndGlyphs" x="42" y="72" textLength="208"> consumable slot</tspan>
		</text>
	</g>
</svg>
