<!-- Generated by balatro_text_to_svg.py - https://github.com/Breezebuilder/Steamodded-Wiki/blob/dev/Assets/Scripts/balatro_text_to_svg.py -->
<!--
	 {C:green}1 in 6{} chance
	 1 in 6 chance
-->

<svg xmlns="http://www.w3.org/2000/svg" height="128" viewBox="0 0 178 40">
	<defs>
		<path id="one" d="m4 8h4v18h4v4h-12v-4h4v-12h-4v-4h4v-2z"/>
		<path id="six" d="m2 8h8v2h2v4h-4v-2h-4v4h6v2h2v10h-2v2h-8v-2h-2v-18h2v-2zm2 12v6h4v-6h-4z"/>
		<path id="a" d="m0 14h10v2h2v14h-10v-2h-2v-6h2v-2h6v-2h-8v-4zm4 10v2h4v-2h-4z"/>
		<path id="c" d="m2 14h10v4h-8v8h8v4h-10v-2h-2v-12h2v-2z"/>
		<path id="e" d="m2 14h8v2h2v8h-8v2h8v4h-10v-2h-2v-12h2v-2zm2 4v2h4v-2h-4z"/>
		<path id="h" d="m0 8h4v6h6v2h2v14h-4v-12h-4v12h-4v-22z"/>
		<path id="i" d="m0 8h4v4h-4v-4zm0 6h4v16h-4v-16z"/>
		<path id="n" d="m0 14h10v2h2v14h-4v-12h-4v12h-4v-16z"/>
	</defs>
	<g fill="rgba(0,0,0,0.3)">
		<g transform="translate(7,2)">
			<use href="#one" x="0"/>
			<use href="#i" x="26"/>
			<use href="#n" x="32"/>
			<use href="#six" x="58"/>
		</g>
		<g transform="translate(79,2)">
			<use href="#c" x="12"/>
			<use href="#h" x="26"/>
			<use href="#a" x="40"/>
			<use href="#n" x="54"/>
			<use href="#c" x="68"/>
			<use href="#e" x="82"/>
		</g>
	</g>
	<g>
		<g fill="#4BC292FF" transform="translate(5,0)">
			<use href="#one" x="0"/>
			<use href="#i" x="26"/>
			<use href="#n" x="32"/>
			<use href="#six" x="58"/>
		</g>
		<g fill="#4F6367FF" transform="translate(77,0)">
			<use href="#c" x="12"/>
			<use href="#h" x="26"/>
			<use href="#a" x="40"/>
			<use href="#n" x="54"/>
			<use href="#c" x="68"/>
			<use href="#e" x="82"/>
		</g>
	</g>
</svg>