<svg xmlns="http://www.w3.org/2000/svg"
    width="250.875" height="38.375"
    viewBox="0 -28.125 250.875 38.375">

    <!-- Shadow -->
    <g transform="translate(4,4)"
       fill="black" opacity="0.5">
        <g transform="translate(0,0) scale(0.048828125,-0.048828125)"><path d="M64 576H384V448H128V0H384V-128H64V-64H0V512H64Z" /></g><g transform="translate(21.875,0) scale(0.048828125,-0.048828125)"><path d="M64 384H320V320H384V64H128V0H384V-128H64V-64H0V320H64ZM128 256V192H256V256Z" /></g><g transform="translate(43.75,0) scale(0.048828125,-0.048828125)"><path d="M0 384H128V320H192V384H384V256H192V192H128V-128H0Z" /></g><g transform="translate(65.625,0) scale(0.048828125,-0.048828125)"><path d="M0 384H128V0H256V384H384V-64H320V-128H64V-64H0Z" /></g><g transform="translate(87.5,0) scale(0.048828125,-0.048828125)"><path d="M0 576H128V-128H0Z" /></g><g transform="translate(96.875,0) scale(0.048828125,-0.048828125)"><path d="M64 384H320V320H384V64H128V0H384V-128H64V-64H0V320H64ZM128 256V192H256V256Z" /></g><g transform="translate(118.75,0) scale(0.048828125,-0.048828125)"><path d="M0 384H320V320H384V-128H64V-64H0V128H64V192H256V256H0ZM128 64V0H256V64Z" /></g><g transform="translate(140.625,0) scale(0.048828125,-0.048828125)"><path d="M0 384H320V320H384V-128H256V256H128V-128H0Z" /></g><g transform="translate(184.375,0) scale(0.048828125,-0.048828125)"><path d="M0 576H320V512H384V256H320V192H384V-64H320V-128H0ZM128 448V320H256V448ZM128 192V0H256V192Z" /></g><g transform="translate(206.25,0) scale(0.048828125,-0.048828125)"><path d="M64 384H320V320H384V64H128V0H384V-128H64V-64H0V320H64ZM128 256V192H256V256Z" /></g><g transform="translate(228.125,0) scale(0.048828125,-0.048828125)"><path d="M0 576H128V-128H0Z" /></g><g transform="translate(237.5,0) scale(0.048828125,-0.048828125)"><path d="M0 576H128V-128H0Z" /></g>
    </g>

    <!-- Text -->
    <g fill="#055481">
        <g transform="translate(0,0) scale(0.048828125,-0.048828125)"><path d="M64 576H384V448H128V0H384V-128H64V-64H0V512H64Z" /></g><g transform="translate(21.875,0) scale(0.048828125,-0.048828125)"><path d="M64 384H320V320H384V64H128V0H384V-128H64V-64H0V320H64ZM128 256V192H256V256Z" /></g><g transform="translate(43.75,0) scale(0.048828125,-0.048828125)"><path d="M0 384H128V320H192V384H384V256H192V192H128V-128H0Z" /></g><g transform="translate(65.625,0) scale(0.048828125,-0.048828125)"><path d="M0 384H128V0H256V384H384V-64H320V-128H64V-64H0Z" /></g><g transform="translate(87.5,0) scale(0.048828125,-0.048828125)"><path d="M0 576H128V-128H0Z" /></g><g transform="translate(96.875,0) scale(0.048828125,-0.048828125)"><path d="M64 384H320V320H384V64H128V0H384V-128H64V-64H0V320H64ZM128 256V192H256V256Z" /></g><g transform="translate(118.75,0) scale(0.048828125,-0.048828125)"><path d="M0 384H320V320H384V-128H64V-64H0V128H64V192H256V256H0ZM128 64V0H256V64Z" /></g><g transform="translate(140.625,0) scale(0.048828125,-0.048828125)"><path d="M0 384H320V320H384V-128H256V256H128V-128H0Z" /></g><g transform="translate(184.375,0) scale(0.048828125,-0.048828125)"><path d="M0 576H320V512H384V256H320V192H384V-64H320V-128H0ZM128 448V320H256V448ZM128 192V0H256V192Z" /></g><g transform="translate(206.25,0) scale(0.048828125,-0.048828125)"><path d="M64 384H320V320H384V64H128V0H384V-128H64V-64H0V320H64ZM128 256V192H256V256Z" /></g><g transform="translate(228.125,0) scale(0.048828125,-0.048828125)"><path d="M0 576H128V-128H0Z" /></g><g transform="translate(237.5,0) scale(0.048828125,-0.048828125)"><path d="M0 576H128V-128H0Z" /></g>
    </g>

</svg>