<!-- Generated by balatro_text_to_svg.py - https://github.com/Breezebuilder/Steamodded-Wiki/blob/dev/Assets/Scripts/balatro_text_to_svg.py -->
<!--
	 {C:blue}+1{} hand
	 +1 hand
-->

<svg xmlns="http://www.w3.org/2000/svg" height="128" viewBox="0 0 106 40">
	<defs>
		<path id="plus" d="m4 14h4v4h4v4h-4v4h-4v-4h-4v-4h4v-4z"/>
		<path id="one" d="m4 8h4v18h4v4h-12v-4h4v-12h-4v-4h4v-2z"/>
		<path id="a" d="m0 14h10v2h2v14h-10v-2h-2v-6h2v-2h6v-2h-8v-4zm4 10v2h4v-2h-4z"/>
		<path id="d" d="m8 8h4v22h-10v-2h-2v-12h2v-2h6v-6zm-4 10v8h4v-8h-4z"/>
		<path id="h" d="m0 8h4v6h6v2h2v14h-4v-12h-4v12h-4v-22z"/>
		<path id="n" d="m0 14h10v2h2v14h-4v-12h-4v12h-4v-16z"/>
	</defs>
	<g fill="rgba(0,0,0,0.3)">
		<g transform="translate(7,2)">
			<use href="#plus" x="0"/>
			<use href="#one" x="14"/>
		</g>
		<g transform="translate(35,2)">
			<use href="#h" x="12"/>
			<use href="#a" x="26"/>
			<use href="#n" x="40"/>
			<use href="#d" x="54"/>
		</g>
	</g>
	<g>
		<g fill="#009DFFFF" transform="translate(5,0)">
			<use href="#plus" x="0"/>
			<use href="#one" x="14"/>
		</g>
		<g fill="#FFFFFFFF" transform="translate(33,0)">
			<use href="#h" x="12"/>
			<use href="#a" x="26"/>
			<use href="#n" x="40"/>
			<use href="#d" x="54"/>
		</g>
	</g>
</svg>