<!-- Generated by balatro_text_to_svg.py - https://github.com/Breezebuilder/Steamodded-Wiki/blob/dev/Assets/Scripts/balatro_text_to_svg.py -->
<!--
	 {C:clubs}Clubs{}
	 Clubs
-->

<svg xmlns="http://www.w3.org/2000/svg" height="128" viewBox="0 0 72 40">
	<defs>
		<path id="C" d="m2 8h10v4h-8v14h8v4h-10v-2h-2v-18h2v-2z"/>
		<path id="b" d="m0 8h4v6h6v2h2v12h-2v2h-10v-22zm4 10v8h4v-8h-4z"/>
		<path id="l" d="m0 8h4v22h-4v-22z"/>
		<path id="s" d="m2 14h10v4h-8v2h6v2h2v6h-2v2h-10v-4h8v-2h-6v-2h-2v-6h2v-2z"/>
		<path id="u" d="m0 14h4v12h4v-12h4v14h-2v2h-8v-2h-2v-14z"/>
	</defs>
	<g fill="rgba(0,0,0,0.3)">
		<g transform="translate(7,2)">
			<use href="#C" x="0"/>
			<use href="#l" x="14"/>
			<use href="#u" x="20"/>
			<use href="#b" x="34"/>
			<use href="#s" x="48"/>
		</g>
	</g>
	<g>
		<g fill="#235955FF" transform="translate(5,0)">
			<use href="#C" x="0"/>
			<use href="#l" x="14"/>
			<use href="#u" x="20"/>
			<use href="#b" x="34"/>
			<use href="#s" x="48"/>
		</g>
	</g>
</svg>