<!-- Generated by balatro_text_to_svg.py - https://github.com/Breezebuilder/Steamodded-Wiki/blob/dev/Assets/Scripts/balatro_text_to_svg.py -->
<!--
	 {C:diamonds}Diamonds{}
	 Diamonds
-->

<svg xmlns="http://www.w3.org/2000/svg" height="128" viewBox="0 0 118 40">
	<defs>
		<path id="D" d="m0 8h10v2h2v18h-2v2h-10v-22zm4 4v14h4v-14h-4z"/>
		<path id="a" d="m0 14h10v2h2v14h-10v-2h-2v-6h2v-2h6v-2h-8v-4zm4 10v2h4v-2h-4z"/>
		<path id="d" d="m8 8h4v22h-10v-2h-2v-12h2v-2h6v-6zm-4 10v8h4v-8h-4z"/>
		<path id="i" d="m0 8h4v4h-4v-4zm0 6h4v16h-4v-16z"/>
		<path id="m" d="m0 14h14v2h2v14h-4v-12h-2v12h-4v-12h-2v12h-4v-16z"/>
		<path id="n" d="m0 14h10v2h2v14h-4v-12h-4v12h-4v-16z"/>
		<path id="o" d="m2 14h8v2h2v12h-2v2h-8v-2h-2v-12h2v-2zm2 4v8h4v-8h-4z"/>
		<path id="s" d="m2 14h10v4h-8v2h6v2h2v6h-2v2h-10v-4h8v-2h-6v-2h-2v-6h2v-2z"/>
	</defs>
	<g fill="rgba(0,0,0,0.3)">
		<g transform="translate(7,2)">
			<use href="#D" x="0"/>
			<use href="#i" x="14"/>
			<use href="#a" x="20"/>
			<use href="#m" x="34"/>
			<use href="#o" x="52"/>
			<use href="#n" x="66"/>
			<use href="#d" x="80"/>
			<use href="#s" x="94"/>
		</g>
	</g>
	<g>
		<g fill="#F06B3FFF" transform="translate(5,0)">
			<use href="#D" x="0"/>
			<use href="#i" x="14"/>
			<use href="#a" x="20"/>
			<use href="#m" x="34"/>
			<use href="#o" x="52"/>
			<use href="#n" x="66"/>
			<use href="#d" x="80"/>
			<use href="#s" x="94"/>
		</g>
	</g>
</svg>