<svg xmlns="http://www.w3.org/2000/svg"
    width="124.30000000000001" height="41.5"
    viewBox="0 -38.0 124.30000000000001 41.5">

    <g transform="translate(3,3)"
       fill="black" opacity="0.5">
        <g transform="translate(0,0) scale(0.05,-0.05)"><path d="M643 0H553V333H187V0H97V714H187V412H553V714H643Z" /></g><g transform="translate(37.050000000000004,0) scale(0.05,-0.05)"><path d="M292 546Q361 546 410.5 516.0Q460 486 486.5 431.5Q513 377 513 304V251H146Q148 160 192.5 112.5Q237 65 317 65Q368 65 407.5 74.5Q447 84 489 102V25Q448 7 408.0 -1.5Q368 -10 313 -10Q237 -10 178.5 21.0Q120 52 87.5 113.5Q55 175 55 264Q55 352 84.5 415.0Q114 478 167.5 512.0Q221 546 292 546ZM291 474Q228 474 191.5 433.5Q155 393 148 321H421Q420 389 389.0 431.5Q358 474 291 474Z" /></g><g transform="translate(65.25,0) scale(0.05,-0.05)"><path d="M173 0H85V760H173Z" /></g><g transform="translate(78.15,0) scale(0.05,-0.05)"><path d="M173 0H85V760H173Z" /></g><g transform="translate(91.05000000000001,0) scale(0.05,-0.05)"><path d="M551 269Q551 136 483.5 63.0Q416 -10 301 -10Q230 -10 174.5 22.5Q119 55 87.0 117.5Q55 180 55 269Q55 402 122.0 474.0Q189 546 304 546Q377 546 432.5 513.5Q488 481 519.5 419.5Q551 358 551 269ZM146 269Q146 174 183.5 118.5Q221 63 303 63Q384 63 422.0 118.5Q460 174 460 269Q460 364 422.0 418.0Q384 472 302 472Q220 472 183.0 418.0Q146 364 146 269Z" /></g>
    </g>

    <g fill="#4F6367">
        <g transform="translate(0,0) scale(0.05,-0.05)"><path d="M643 0H553V333H187V0H97V714H187V412H553V714H643Z" /></g><g transform="translate(37.050000000000004,0) scale(0.05,-0.05)"><path d="M292 546Q361 546 410.5 516.0Q460 486 486.5 431.5Q513 377 513 304V251H146Q148 160 192.5 112.5Q237 65 317 65Q368 65 407.5 74.5Q447 84 489 102V25Q448 7 408.0 -1.5Q368 -10 313 -10Q237 -10 178.5 21.0Q120 52 87.5 113.5Q55 175 55 264Q55 352 84.5 415.0Q114 478 167.5 512.0Q221 546 292 546ZM291 474Q228 474 191.5 433.5Q155 393 148 321H421Q420 389 389.0 431.5Q358 474 291 474Z" /></g><g transform="translate(65.25,0) scale(0.05,-0.05)"><path d="M173 0H85V760H173Z" /></g><g transform="translate(78.15,0) scale(0.05,-0.05)"><path d="M173 0H85V760H173Z" /></g><g transform="translate(91.05000000000001,0) scale(0.05,-0.05)"><path d="M551 269Q551 136 483.5 63.0Q416 -10 301 -10Q230 -10 174.5 22.5Q119 55 87.0 117.5Q55 180 55 269Q55 402 122.0 474.0Q189 546 304 546Q377 546 432.5 513.5Q488 481 519.5 419.5Q551 358 551 269ZM146 269Q146 174 183.5 118.5Q221 63 303 63Q384 63 422.0 118.5Q460 174 460 269Q460 364 422.0 418.0Q384 472 302 472Q220 472 183.0 418.0Q146 364 146 269Z" /></g>
    </g>

</svg>