<!-- Generated by balatro_text_to_svg.py - https://github.com/Breezebuilder/Steamodded-Wiki/blob/dev/Assets/Scripts/balatro_text_to_svg.py -->
<!--
	 {E:1,C:legendary}Legendary{} Joker
	 Legendary Joker
-->

<svg xmlns="http://www.w3.org/2000/svg" height="128" viewBox="0 0 218 40">
	<defs>
		<path id="J" d="m0 8h12v20h-2v2h-8v-2h-2v-4h4v2h4v-14h-8v-4z"/>
		<path id="L" d="m0 8h4v18h8v4h-10v-2h-2v-20z"/>
		<path id="a" d="m0 14h10v2h2v14h-10v-2h-2v-6h2v-2h6v-2h-8v-4zm4 10v2h4v-2h-4z"/>
		<path id="d" d="m8 8h4v22h-10v-2h-2v-12h2v-2h6v-6zm-4 10v8h4v-8h-4z"/>
		<path id="e" d="m2 14h8v2h2v8h-8v2h8v4h-10v-2h-2v-12h2v-2zm2 4v2h4v-2h-4z"/>
		<path id="g" d="m2 14h8v2h2v18h-2v2h-10v-4h8v-2h-6v-2h-2v-12h2v-2zm2 4v8h4v-8h-4z"/>
		<path id="k" d="m0 8h4v6h6v2h2v6h-2v2h2v6h-4v-4h-2v-2h-2v6h-4v-22zm4 10v2h4v-2h-4z"/>
		<path id="n" d="m0 14h10v2h2v14h-4v-12h-4v12h-4v-16z"/>
		<path id="o" d="m2 14h8v2h2v12h-2v2h-8v-2h-2v-12h2v-2zm2 4v8h4v-8h-4z"/>
		<path id="r" d="m0 14h4v2h2v-2h6v4h-6v2h-2v10h-4v-16z"/>
		<path id="y" d="m0 14h4v12h4v-12h4v20h-2v2h-10v-4h8v-2h-6v-2h-2v-14z"/>
	</defs>
	<g fill="rgba(0,0,0,0.3)">
		<g transform="translate(7,2)">
			<use href="#L" x="0"/>
			<use href="#e" x="14"/>
			<use href="#g" x="28"/>
			<use href="#e" x="42"/>
			<use href="#n" x="56"/>
			<use href="#d" x="70"/>
			<use href="#a" x="84"/>
			<use href="#r" x="98"/>
			<use href="#y" x="112"/>
		</g>
		<g transform="translate(133,2)">
			<use href="#J" x="12"/>
			<use href="#o" x="26"/>
			<use href="#k" x="40"/>
			<use href="#e" x="54"/>
			<use href="#r" x="68"/>
		</g>
	</g>
	<g>
		<g fill="#B26CBBFF" transform="translate(5,0)">
			<g>
				<g>
					<use href="#L" x="0"/>
					<use href="#a" x="84"/>
					<animateMotion path="m0 0 a0.6 0.6 0 0 1 1.2 0 a0.6 0.6 0 0 1 -1.2 0" dur="2.4" begin="-2.4" repeatCount="indefinite"/>
				</g>
				<animateMotion path="m0 0 a0.6 0.6 0 0 0 -1.2 0 a0.6 0.6 0 0 0 1.2 0" dur="2.4" begin="-2.4" repeatCount="indefinite"/>
			</g>
			<g>
				<g>
					<use href="#e" x="14"/>
					<use href="#r" x="98"/>
					<animateMotion path="m0 0 a0.6 0.6 0 0 1 1.2 0 a0.6 0.6 0 0 1 -1.2 0" dur="2.4" begin="-2" repeatCount="indefinite"/>
				</g>
				<animateMotion path="m0 0 a0.6 0.6 0 0 0 -1.2 0 a0.6 0.6 0 0 0 1.2 0" dur="2.4" begin="-2" repeatCount="indefinite"/>
			</g>
			<g>
				<g>
					<use href="#g" x="28"/>
					<use href="#y" x="112"/>
					<animateMotion path="m0 0 a0.6 0.6 0 0 1 1.2 0 a0.6 0.6 0 0 1 -1.2 0" dur="2.4" begin="-1.6" repeatCount="indefinite"/>
				</g>
				<animateMotion path="m0 0 a0.6 0.6 0 0 0 -1.2 0 a0.6 0.6 0 0 0 1.2 0" dur="2.4" begin="-1.6" repeatCount="indefinite"/>
			</g>
			<g>
				<g>
					<use href="#e" x="42"/>
					<animateMotion path="m0 0 a0.6 0.6 0 0 1 1.2 0 a0.6 0.6 0 0 1 -1.2 0" dur="2.4" begin="-1.2" repeatCount="indefinite"/>
				</g>
				<animateMotion path="m0 0 a0.6 0.6 0 0 0 -1.2 0 a0.6 0.6 0 0 0 1.2 0" dur="2.4" begin="-1.2" repeatCount="indefinite"/>
			</g>
			<g>
				<g>
					<use href="#n" x="56"/>
					<animateMotion path="m0 0 a0.6 0.6 0 0 1 1.2 0 a0.6 0.6 0 0 1 -1.2 0" dur="2.4" begin="-0.8" repeatCount="indefinite"/>
				</g>
				<animateMotion path="m0 0 a0.6 0.6 0 0 0 -1.2 0 a0.6 0.6 0 0 0 1.2 0" dur="2.4" begin="-0.8" repeatCount="indefinite"/>
			</g>
			<g>
				<g>
					<use href="#d" x="70"/>
					<animateMotion path="m0 0 a0.6 0.6 0 0 1 1.2 0 a0.6 0.6 0 0 1 -1.2 0" dur="2.4" begin="-0.4" repeatCount="indefinite"/>
				</g>
				<animateMotion path="m0 0 a0.6 0.6 0 0 0 -1.2 0 a0.6 0.6 0 0 0 1.2 0" dur="2.4" begin="-0.4" repeatCount="indefinite"/>
			</g>
		</g>
		<g fill="#FFFFFFFF" transform="translate(131,0)">
			<use href="#J" x="12"/>
			<use href="#o" x="26"/>
			<use href="#k" x="40"/>
			<use href="#e" x="54"/>
			<use href="#r" x="68"/>
		</g>
	</g>
</svg>