<svg xmlns="http://www.w3.org/2000/svg"
    width="128.0" height="39.6328125"
    viewBox="0 -36.1328125 128.0 39.6328125">

    <g transform="translate(3,3.5)"
       fill="black" opacity="0.5">
        <g transform="translate(0,0) scale(0.0244140625,-0.0244140625)"><path d="M128 0V1480H896V0ZM256 128H768V1352H256Z" /></g><g transform="translate(25.0,0) scale(0.0244140625,-0.0244140625)"><path d="M128 0V1480H896V0ZM256 128H768V1352H256Z" /></g><g transform="translate(50.0,0) scale(0.0244140625,-0.0244140625)"><path d="M128 0V1480H896V0ZM256 128H768V1352H256Z" /></g><g transform="translate(75.0,0) scale(0.0244140625,-0.0244140625)"><path d="M128 0V1480H896V0ZM256 128H768V1352H256Z" /></g><g transform="translate(100.0,0) scale(0.0244140625,-0.0244140625)"><path d="M128 0V1480H896V0ZM256 128H768V1352H256Z" /></g>
    </g>

    <g fill="white">
        <g transform="translate(0,0) scale(0.0244140625,-0.0244140625)"><path d="M128 0V1480H896V0ZM256 128H768V1352H256Z" /></g><g transform="translate(25.0,0) scale(0.0244140625,-0.0244140625)"><path d="M128 0V1480H896V0ZM256 128H768V1352H256Z" /></g><g transform="translate(50.0,0) scale(0.0244140625,-0.0244140625)"><path d="M128 0V1480H896V0ZM256 128H768V1352H256Z" /></g><g transform="translate(75.0,0) scale(0.0244140625,-0.0244140625)"><path d="M128 0V1480H896V0ZM256 128H768V1352H256Z" /></g><g transform="translate(100.0,0) scale(0.0244140625,-0.0244140625)"><path d="M128 0V1480H896V0ZM256 128H768V1352H256Z" /></g>
    </g>

</svg>