<svg xmlns="http://www.w3.org/2000/svg"
    width="510.85" height="54.1"
    viewBox="0 -38.6 510.85 54.1">

    <g transform="translate(3,3.5)"
       fill="black" opacity="0.3">
        <g transform="translate(0,0) scale(0.05,-0.05)"><path d="M675 0H524V308H241V0H90V714H241V434H524V714H675Z" /></g><g transform="translate(38.25,0) scale(0.05,-0.05)"><path d="M303 556Q379 556 433.5 527.0Q488 498 518.0 443.0Q548 388 548 308V236H196Q198 173 233.5 137.0Q269 101 332 101Q385 101 428.0 111.5Q471 122 517 144V29Q477 9 432.5 -0.5Q388 -10 325 -10Q243 -10 180.0 20.5Q117 51 81.0 113.0Q45 175 45 269Q45 365 77.5 428.5Q110 492 168.0 524.0Q226 556 303 556ZM304 450Q261 450 232.5 422.0Q204 394 199 335H408Q408 368 396.5 394.0Q385 420 362.0 435.0Q339 450 304 450Z" /></g><g transform="translate(67.8,0) scale(0.05,-0.05)"><path d="M227 0H78V760H227Z" /></g><g transform="translate(83.05,0) scale(0.05,-0.05)"><path d="M227 0H78V760H227Z" /></g><g transform="translate(98.3,0) scale(0.05,-0.05)"><path d="M574 274Q574 206 555.5 153.0Q537 100 502.5 63.5Q468 27 419.0 8.5Q370 -10 308 -10Q251 -10 202.5 8.5Q154 27 119.0 63.5Q84 100 64.5 153.0Q45 206 45 274Q45 365 77.0 427.5Q109 490 169.0 523.0Q229 556 311 556Q388 556 447.0 523.0Q506 490 540.0 427.5Q574 365 574 274ZM197 274Q197 220 208.5 183.5Q220 147 245.0 128.5Q270 110 310 110Q350 110 374.5 128.5Q399 147 410.5 183.5Q422 220 422 274Q422 328 410.5 364.0Q399 400 374.0 418.0Q349 436 309 436Q250 436 223.5 395.5Q197 355 197 274Z" /></g><g transform="translate(129.25,0) scale(0.05,-0.05)"><path d="M224 105Q215 70 201.0 29.5Q187 -11 171.0 -51.5Q155 -92 138 -129H31Q41 -89 50.0 -45.5Q59 -2 67.0 40.0Q75 82 80 116H217Z" /></g><g transform="translate(156.5,0) scale(0.05,-0.05)"><path d="M261 -10Q197 -10 144.5 -1.0Q92 8 46 26V154Q89 137 142.0 126.0Q195 115 243 115Q312 115 349.0 141.0Q386 167 386 213Q386 263 343.5 285.5Q301 308 218 308H133V428H213Q295 428 334.0 450.5Q373 473 373 518Q373 559 342.5 579.0Q312 599 260 599Q219 599 178.5 589.5Q138 580 85 560L40 674Q96 699 154.0 711.5Q212 724 276 724Q389 724 455.5 675.0Q522 626 522 543Q522 479 484.5 434.5Q447 390 379 377V372Q457 362 498.5 318.0Q540 274 540 202Q540 142 507.5 94.0Q475 46 413.0 18.0Q351 -10 261 -10Z" /></g><g transform="translate(186.15,0) scale(0.05,-0.05)"><path d="M5 -140V114H66Q81 133 92.5 155.0Q104 177 111.0 205.0Q118 233 121 268Q123 295 125.0 325.5Q127 356 128.5 390.0Q130 424 132.0 463.0Q134 502 135 546H550V114H627V-140H488V0H144V-140ZM213 114H401V432H264Q263 400 261.5 370.5Q260 341 258.5 316.0Q257 291 255 270Q251 215 240.0 177.5Q229 140 213 114Z" /></g><g transform="translate(218.0,0) scale(0.05,-0.05)"><path d="M80 -240V546H201L222 475H229Q244 497 265.0 515.5Q286 534 315.5 545.0Q345 556 384 556Q476 556 533.0 484.5Q590 413 590 274Q590 181 563.0 117.5Q536 54 489.0 22.0Q442 -10 380 -10Q341 -10 312.5 0.0Q284 10 264.0 26.0Q244 42 229 60H221Q225 41 227.0 20.5Q229 0 229 -20V-240ZM338 111Q372 111 394.0 130.0Q416 149 427.0 186.0Q438 223 438 276Q438 356 413.5 396.5Q389 437 336 437Q297 437 274.0 421.0Q251 405 240.5 372.5Q230 340 229 291V275Q229 222 239.0 185.5Q249 149 273.0 130.0Q297 111 338 111Z" /></g><g transform="translate(249.75,0) scale(0.05,-0.05)"><path d="M208 -10Q157 -10 119.5 11.0Q82 32 61.0 69.5Q40 107 40 158Q40 245 100.5 289.0Q161 333 282 337L373 340V362Q373 406 349.5 425.5Q326 445 275 445Q241 445 202.5 436.0Q164 427 115 408L72 512Q123 535 177.5 545.5Q232 556 290 556Q403 556 462.0 509.0Q521 462 521 364V0H417L388 74H384Q361 45 336.5 26.0Q312 7 281.5 -1.5Q251 -10 208 -10ZM265 99Q312 99 342.5 127.5Q373 156 373 208V253L319 251Q247 248 219.0 226.0Q191 204 191 168Q191 134 212.5 116.5Q234 99 265 99Z" /></g><g transform="translate(279.55,0) scale(0.05,-0.05)"><path d="M80 0V546H322Q386 546 436.5 532.5Q487 519 516.5 488.5Q546 458 546 405Q546 359 518.5 328.0Q491 297 437 288V284Q493 277 527.0 244.0Q561 211 561 161Q561 114 536.5 77.5Q512 41 459.0 20.5Q406 0 320 0ZM227 105H315Q362 105 385.5 121.0Q409 137 409 171Q409 204 384.5 218.0Q360 232 311 232H227ZM227 333H312Q353 333 374.0 346.0Q395 359 395 388Q395 415 376.0 428.0Q357 441 317 441H227Z" /></g><g transform="translate(309.6,0) scale(0.05,-0.05)"><path d="M313 -10Q183 -10 113.0 62.5Q43 135 43 270Q43 369 78.0 432.0Q113 495 175.0 525.5Q237 556 318 556Q370 556 412.0 547.0Q454 538 488 521L444 412Q409 427 382.0 434.0Q355 441 328 441Q261 441 228.0 399.0Q195 357 195 271Q197 186 232.5 146.5Q268 107 341 107Q377 107 409.0 115.5Q441 124 478 143V25Q442 9 401.0 -0.5Q360 -10 313 -10Z" /></g><g transform="translate(335.85,0) scale(0.05,-0.05)"><path d="M178 0V434H10V546H495V434H327V0Z" /></g><g transform="translate(361.1,0) scale(0.05,-0.05)"><path d="M80 0V546H322Q386 546 436.5 532.5Q487 519 516.5 488.5Q546 458 546 405Q546 359 518.5 328.0Q491 297 437 288V284Q493 277 527.0 244.0Q561 211 561 161Q561 114 536.5 77.5Q512 41 459.0 20.5Q406 0 320 0ZM227 105H315Q362 105 385.5 121.0Q409 137 409 171Q409 204 384.5 218.0Q360 232 311 232H227ZM227 333H312Q353 333 374.0 346.0Q395 359 395 388Q395 415 376.0 428.0Q357 441 317 441H227Z" /></g><g transform="translate(391.15000000000003,0) scale(0.05,-0.05)"><path d="M112 -240Q87 -240 67.0 -238.0Q47 -236 32 -232V-114Q47 -116 61.5 -118.0Q76 -120 93 -120Q124 -120 145.5 -111.5Q167 -103 182.5 -83.0Q198 -63 210 -30L245 68L243 -59L3 546H170L271 239Q276 224 279.5 209.0Q283 194 285.5 178.0Q288 162 289 144H292Q295 170 300.0 193.5Q305 217 312 239L411 546H568L339 -70Q318 -128 286.0 -165.5Q254 -203 211.0 -221.5Q168 -240 112 -240Z" /></g><g transform="translate(419.65000000000003,0) scale(0.05,-0.05)"><path d="M80 0V546H225V330Q225 303 223.0 268.0Q221 233 218.5 203.0Q216 173 213 160H216L424 546H594V0H449V218Q449 250 451.0 282.5Q453 315 455.5 342.0Q458 369 460 384H456L250 0ZM333 606Q246 606 198.0 647.0Q150 688 142 772H273Q277 731 291.5 712.5Q306 694 336 694Q365 694 380.0 713.0Q395 732 399 772H530Q522 690 472.0 648.0Q422 606 333 606Z" /></g><g transform="translate(453.35,0) scale(0.05,-0.05)"><path d="M178 0V434H10V546H495V434H327V0Z" /></g><g transform="translate(478.6,0) scale(0.05,-0.05)"><path d="M325 -10Q243 -10 179.5 20.5Q116 51 80.0 113.0Q44 175 44 269Q44 365 76.5 428.5Q109 492 166.5 524.0Q224 556 298 556Q374 556 428.5 527.0Q483 498 513.0 443.0Q543 388 543 308V232H194Q197 171 233.0 136.0Q269 101 337 101Q384 101 425.0 111.5Q466 122 512 144V29Q472 9 428.0 -0.5Q384 -10 325 -10ZM197 335H403Q403 367 391.5 392.0Q380 417 358.0 432.0Q336 447 302 447Q259 447 230.5 419.5Q202 392 197 335Z" /></g>
    </g>

    <g fill="white">
        <g transform="translate(0,0) scale(0.05,-0.05)"><path d="M675 0H524V308H241V0H90V714H241V434H524V714H675Z" /></g><g transform="translate(38.25,0) scale(0.05,-0.05)"><path d="M303 556Q379 556 433.5 527.0Q488 498 518.0 443.0Q548 388 548 308V236H196Q198 173 233.5 137.0Q269 101 332 101Q385 101 428.0 111.5Q471 122 517 144V29Q477 9 432.5 -0.5Q388 -10 325 -10Q243 -10 180.0 20.5Q117 51 81.0 113.0Q45 175 45 269Q45 365 77.5 428.5Q110 492 168.0 524.0Q226 556 303 556ZM304 450Q261 450 232.5 422.0Q204 394 199 335H408Q408 368 396.5 394.0Q385 420 362.0 435.0Q339 450 304 450Z" /></g><g transform="translate(67.8,0) scale(0.05,-0.05)"><path d="M227 0H78V760H227Z" /></g><g transform="translate(83.05,0) scale(0.05,-0.05)"><path d="M227 0H78V760H227Z" /></g><g transform="translate(98.3,0) scale(0.05,-0.05)"><path d="M574 274Q574 206 555.5 153.0Q537 100 502.5 63.5Q468 27 419.0 8.5Q370 -10 308 -10Q251 -10 202.5 8.5Q154 27 119.0 63.5Q84 100 64.5 153.0Q45 206 45 274Q45 365 77.0 427.5Q109 490 169.0 523.0Q229 556 311 556Q388 556 447.0 523.0Q506 490 540.0 427.5Q574 365 574 274ZM197 274Q197 220 208.5 183.5Q220 147 245.0 128.5Q270 110 310 110Q350 110 374.5 128.5Q399 147 410.5 183.5Q422 220 422 274Q422 328 410.5 364.0Q399 400 374.0 418.0Q349 436 309 436Q250 436 223.5 395.5Q197 355 197 274Z" /></g><g transform="translate(129.25,0) scale(0.05,-0.05)"><path d="M224 105Q215 70 201.0 29.5Q187 -11 171.0 -51.5Q155 -92 138 -129H31Q41 -89 50.0 -45.5Q59 -2 67.0 40.0Q75 82 80 116H217Z" /></g><g transform="translate(156.5,0) scale(0.05,-0.05)"><path d="M261 -10Q197 -10 144.5 -1.0Q92 8 46 26V154Q89 137 142.0 126.0Q195 115 243 115Q312 115 349.0 141.0Q386 167 386 213Q386 263 343.5 285.5Q301 308 218 308H133V428H213Q295 428 334.0 450.5Q373 473 373 518Q373 559 342.5 579.0Q312 599 260 599Q219 599 178.5 589.5Q138 580 85 560L40 674Q96 699 154.0 711.5Q212 724 276 724Q389 724 455.5 675.0Q522 626 522 543Q522 479 484.5 434.5Q447 390 379 377V372Q457 362 498.5 318.0Q540 274 540 202Q540 142 507.5 94.0Q475 46 413.0 18.0Q351 -10 261 -10Z" /></g><g transform="translate(186.15,0) scale(0.05,-0.05)"><path d="M5 -140V114H66Q81 133 92.5 155.0Q104 177 111.0 205.0Q118 233 121 268Q123 295 125.0 325.5Q127 356 128.5 390.0Q130 424 132.0 463.0Q134 502 135 546H550V114H627V-140H488V0H144V-140ZM213 114H401V432H264Q263 400 261.5 370.5Q260 341 258.5 316.0Q257 291 255 270Q251 215 240.0 177.5Q229 140 213 114Z" /></g><g transform="translate(218.0,0) scale(0.05,-0.05)"><path d="M80 -240V546H201L222 475H229Q244 497 265.0 515.5Q286 534 315.5 545.0Q345 556 384 556Q476 556 533.0 484.5Q590 413 590 274Q590 181 563.0 117.5Q536 54 489.0 22.0Q442 -10 380 -10Q341 -10 312.5 0.0Q284 10 264.0 26.0Q244 42 229 60H221Q225 41 227.0 20.5Q229 0 229 -20V-240ZM338 111Q372 111 394.0 130.0Q416 149 427.0 186.0Q438 223 438 276Q438 356 413.5 396.5Q389 437 336 437Q297 437 274.0 421.0Q251 405 240.5 372.5Q230 340 229 291V275Q229 222 239.0 185.5Q249 149 273.0 130.0Q297 111 338 111Z" /></g><g transform="translate(249.75,0) scale(0.05,-0.05)"><path d="M208 -10Q157 -10 119.5 11.0Q82 32 61.0 69.5Q40 107 40 158Q40 245 100.5 289.0Q161 333 282 337L373 340V362Q373 406 349.5 425.5Q326 445 275 445Q241 445 202.5 436.0Q164 427 115 408L72 512Q123 535 177.5 545.5Q232 556 290 556Q403 556 462.0 509.0Q521 462 521 364V0H417L388 74H384Q361 45 336.5 26.0Q312 7 281.5 -1.5Q251 -10 208 -10ZM265 99Q312 99 342.5 127.5Q373 156 373 208V253L319 251Q247 248 219.0 226.0Q191 204 191 168Q191 134 212.5 116.5Q234 99 265 99Z" /></g><g transform="translate(279.55,0) scale(0.05,-0.05)"><path d="M80 0V546H322Q386 546 436.5 532.5Q487 519 516.5 488.5Q546 458 546 405Q546 359 518.5 328.0Q491 297 437 288V284Q493 277 527.0 244.0Q561 211 561 161Q561 114 536.5 77.5Q512 41 459.0 20.5Q406 0 320 0ZM227 105H315Q362 105 385.5 121.0Q409 137 409 171Q409 204 384.5 218.0Q360 232 311 232H227ZM227 333H312Q353 333 374.0 346.0Q395 359 395 388Q395 415 376.0 428.0Q357 441 317 441H227Z" /></g><g transform="translate(309.6,0) scale(0.05,-0.05)"><path d="M313 -10Q183 -10 113.0 62.5Q43 135 43 270Q43 369 78.0 432.0Q113 495 175.0 525.5Q237 556 318 556Q370 556 412.0 547.0Q454 538 488 521L444 412Q409 427 382.0 434.0Q355 441 328 441Q261 441 228.0 399.0Q195 357 195 271Q197 186 232.5 146.5Q268 107 341 107Q377 107 409.0 115.5Q441 124 478 143V25Q442 9 401.0 -0.5Q360 -10 313 -10Z" /></g><g transform="translate(335.85,0) scale(0.05,-0.05)"><path d="M178 0V434H10V546H495V434H327V0Z" /></g><g transform="translate(361.1,0) scale(0.05,-0.05)"><path d="M80 0V546H322Q386 546 436.5 532.5Q487 519 516.5 488.5Q546 458 546 405Q546 359 518.5 328.0Q491 297 437 288V284Q493 277 527.0 244.0Q561 211 561 161Q561 114 536.5 77.5Q512 41 459.0 20.5Q406 0 320 0ZM227 105H315Q362 105 385.5 121.0Q409 137 409 171Q409 204 384.5 218.0Q360 232 311 232H227ZM227 333H312Q353 333 374.0 346.0Q395 359 395 388Q395 415 376.0 428.0Q357 441 317 441H227Z" /></g><g transform="translate(391.15000000000003,0) scale(0.05,-0.05)"><path d="M112 -240Q87 -240 67.0 -238.0Q47 -236 32 -232V-114Q47 -116 61.5 -118.0Q76 -120 93 -120Q124 -120 145.5 -111.5Q167 -103 182.5 -83.0Q198 -63 210 -30L245 68L243 -59L3 546H170L271 239Q276 224 279.5 209.0Q283 194 285.5 178.0Q288 162 289 144H292Q295 170 300.0 193.5Q305 217 312 239L411 546H568L339 -70Q318 -128 286.0 -165.5Q254 -203 211.0 -221.5Q168 -240 112 -240Z" /></g><g transform="translate(419.65000000000003,0) scale(0.05,-0.05)"><path d="M80 0V546H225V330Q225 303 223.0 268.0Q221 233 218.5 203.0Q216 173 213 160H216L424 546H594V0H449V218Q449 250 451.0 282.5Q453 315 455.5 342.0Q458 369 460 384H456L250 0ZM333 606Q246 606 198.0 647.0Q150 688 142 772H273Q277 731 291.5 712.5Q306 694 336 694Q365 694 380.0 713.0Q395 732 399 772H530Q522 690 472.0 648.0Q422 606 333 606Z" /></g><g transform="translate(453.35,0) scale(0.05,-0.05)"><path d="M178 0V434H10V546H495V434H327V0Z" /></g><g transform="translate(478.6,0) scale(0.05,-0.05)"><path d="M325 -10Q243 -10 179.5 20.5Q116 51 80.0 113.0Q44 175 44 269Q44 365 76.5 428.5Q109 492 166.5 524.0Q224 556 298 556Q374 556 428.5 527.0Q483 498 513.0 443.0Q543 388 543 308V232H194Q197 171 233.0 136.0Q269 101 337 101Q384 101 425.0 111.5Q466 122 512 144V29Q472 9 428.0 -0.5Q384 -10 325 -10ZM197 335H403Q403 367 391.5 392.0Q380 417 358.0 432.0Q336 447 302 447Q259 447 230.5 419.5Q202 392 197 335Z" /></g>
    </g>

</svg>