<!-- Generated by balatro_text_to_svg.py - https://github.com/Breezebuilder/Steamodded-Wiki/blob/dev/Assets/Scripts/balatro_text_to_svg.py -->
<!--
	 {C:enhanced}Enhancement{}
	 Enhancement
-->

<svg xmlns="http://www.w3.org/2000/svg" height="128" viewBox="0 0 168 40">
	<defs>
		<path id="E" d="m2 8h10v4h-8v4h6v4h-6v6h8v4h-10v-2h-2v-18h2v-2z"/>
		<path id="a" d="m0 14h10v2h2v14h-10v-2h-2v-6h2v-2h6v-2h-8v-4zm4 10v2h4v-2h-4z"/>
		<path id="c" d="m2 14h10v4h-8v8h8v4h-10v-2h-2v-12h2v-2z"/>
		<path id="e" d="m2 14h8v2h2v8h-8v2h8v4h-10v-2h-2v-12h2v-2zm2 4v2h4v-2h-4z"/>
		<path id="h" d="m0 8h4v6h6v2h2v14h-4v-12h-4v12h-4v-22z"/>
		<path id="m" d="m0 14h14v2h2v14h-4v-12h-2v12h-4v-12h-2v12h-4v-16z"/>
		<path id="n" d="m0 14h10v2h2v14h-4v-12h-4v12h-4v-16z"/>
		<path id="t" d="m2 8h4v6h6v4h-6v8h6v4h-8v-2h-2v-10h-2v-4h2v-6z"/>
	</defs>
	<g fill="rgba(0,0,0,0.3)">
		<g transform="translate(7,2)">
			<use href="#E" x="0"/>
			<use href="#n" x="14"/>
			<use href="#h" x="28"/>
			<use href="#a" x="42"/>
			<use href="#n" x="56"/>
			<use href="#c" x="70"/>
			<use href="#e" x="84"/>
			<use href="#m" x="98"/>
			<use href="#e" x="116"/>
			<use href="#n" x="130"/>
			<use href="#t" x="144"/>
		</g>
	</g>
	<g>
		<g fill="#8389DDFF" transform="translate(5,0)">
			<use href="#E" x="0"/>
			<use href="#n" x="14"/>
			<use href="#h" x="28"/>
			<use href="#a" x="42"/>
			<use href="#n" x="56"/>
			<use href="#c" x="70"/>
			<use href="#e" x="84"/>
			<use href="#m" x="98"/>
			<use href="#e" x="116"/>
			<use href="#n" x="130"/>
			<use href="#t" x="144"/>
		</g>
	</g>
</svg>