<!-- Generated by balatro_text_to_svg.py - https://github.com/Breezebuilder/Steamodded-Wiki/blob/dev/Assets/Scripts/balatro_text_to_svg.py -->
<!--
	 {s:0.8}0.8 {s:1.0}1.0 {s:1.1}1.1
	 0.8 1.0 1.1
-->

<svg xmlns="http://www.w3.org/2000/svg" height="128" viewBox="0 0 131 44">
	<defs>
		<path id="period" d="m0 26h4v4h-4v-4z"/>
		<path id="zero" d="m2 8h8v2h2v18h-2v2h-8v-2h-2v-18h2v-2zm2 4v14h4v-14h-4z"/>
		<path id="one" d="m4 8h4v18h4v4h-12v-4h4v-12h-4v-4h4v-2z"/>
		<path id="eight" d="m2 8h8v2h2v6h-2v2h2v10h-2v2h-8v-2h-2v-10h2v-2h-2v-6h2v-2zm2 4v4h4v-4h-4zm0 8v6h4v-6h-4z"/>
	</defs>
	<g fill="rgba(0,0,0,0.3)">
		<g transform="translate(6.6,7.6) scale(0.8)">
			<use href="#zero" x="0"/>
			<use href="#period" x="14"/>
			<use href="#eight" x="20"/>
		</g>
		<g transform="translate(43.8,4)">
			<use href="#one" x="0"/>
			<use href="#period" x="14"/>
			<use href="#zero" x="20"/>
		</g>
		<g transform="translate(90,2.2) scale(1.1)">
			<use href="#one" x="0"/>
			<use href="#period" x="14"/>
			<use href="#one" x="20"/>
		</g>
	</g>
	<g>
		<g fill="#FFFFFFFF" transform="translate(5,6) scale(0.8)">
			<use href="#zero" x="0"/>
			<use href="#period" x="14"/>
			<use href="#eight" x="20"/>
		</g>
		<g fill="#FFFFFFFF" transform="translate(41.8,2)">
			<use href="#one" x="0"/>
			<use href="#period" x="14"/>
			<use href="#zero" x="20"/>
		</g>
		<g fill="#FFFFFFFF" transform="translate(87.8,0) scale(1.1)">
			<use href="#one" x="0"/>
			<use href="#period" x="14"/>
			<use href="#one" x="20"/>
		</g>
	</g>
</svg>