<svg xmlns="http://www.w3.org/2000/svg"
    width="260.3" height="56.400000000000006"
    viewBox="0 -42.7 260.3 56.400000000000006">

    <g transform="translate(3,3)"
       fill="black" opacity="0.5">
        <g transform="translate(0,0) scale(0.05,-0.05)"><path d="M91 0V741H239V448H519V741H666V0H519V320H239V0Z" /></g><g transform="translate(37.85,0) scale(0.05,-0.05)"><path d="M323 -14Q245 -14 182.0 21.0Q119 56 81.5 122.0Q44 188 44 280Q44 348 65.5 402.0Q87 456 124.5 494.5Q162 533 208.5 553.5Q255 574 305 574Q382 574 434.0 539.5Q486 505 512.5 444.5Q539 384 539 306Q539 286 537.0 267.5Q535 249 532 238H187Q193 193 214.0 162.0Q235 131 268.0 115.5Q301 100 343 100Q377 100 407.0 109.5Q437 119 468 138L518 48Q477 20 426.0 3.0Q375 -14 323 -14ZM184 337H413Q413 393 387.5 426.5Q362 460 307 460Q278 460 252.0 446.5Q226 433 208.0 405.5Q190 378 184 337Z" /></g><g transform="translate(66.9,0) scale(0.05,-0.05)"><path d="M218 -14Q166 -14 136.0 7.5Q106 29 92.5 67.5Q79 106 79 157V798H226V151Q226 126 235.5 116.0Q245 106 255 106Q260 106 264.0 106.5Q268 107 275 108L293 -1Q280 -6 261.5 -10.0Q243 -14 218 -14Z" /></g><g transform="translate(82.65,0) scale(0.05,-0.05)"><path d="M218 -14Q166 -14 136.0 7.5Q106 29 92.5 67.5Q79 106 79 157V798H226V151Q226 126 235.5 116.0Q245 106 255 106Q260 106 264.0 106.5Q268 107 275 108L293 -1Q280 -6 261.5 -10.0Q243 -14 218 -14Z" /></g><g transform="translate(98.4,0) scale(0.05,-0.05)"><path d="M313 -14Q243 -14 181.5 21.0Q120 56 82.0 121.5Q44 187 44 280Q44 373 82.0 438.5Q120 504 181.5 539.0Q243 574 313 574Q366 574 414.0 554.0Q462 534 500.0 496.5Q538 459 560.0 404.5Q582 350 582 280Q582 187 544.0 121.5Q506 56 444.5 21.0Q383 -14 313 -14ZM313 106Q351 106 377.5 127.5Q404 149 417.5 188.0Q431 227 431 280Q431 333 417.5 372.0Q404 411 377.5 432.5Q351 454 313 454Q275 454 248.5 432.5Q222 411 208.5 372.0Q195 333 195 280Q195 227 208.5 188.0Q222 149 248.5 127.5Q275 106 313 106Z" /></g><g transform="translate(129.70000000000002,0) scale(0.05,-0.05)"><path d="M84 -214 53 -134Q111 -111 142.5 -74.0Q174 -37 174 7L169 112L221 25Q209 14 194.5 9.0Q180 4 164 4Q128 4 100.0 26.5Q72 49 72 91Q72 130 100.0 154.0Q128 178 168 178Q218 178 245.5 139.5Q273 101 273 33Q273 -55 224.0 -119.0Q175 -183 84 -214Z" /></g><g transform="translate(157.3,0) scale(0.05,-0.05)"><path d="M452 850 562 823Q535 743 490.0 670.5Q445 598 395 549Q386 560 369.5 574.5Q353 589 336.5 603.0Q320 617 307 625Q355 665 393.0 725.0Q431 785 452 850ZM450 566 558 535Q532 478 493.0 422.5Q454 367 413 329Q403 339 387.0 352.5Q371 366 354.0 379.0Q337 392 325 400Q363 431 396.5 475.5Q430 520 450 566ZM470 768H868V667H429ZM736 522 832 568Q856 539 879.0 505.5Q902 472 921.5 439.5Q941 407 952 380L851 327Q841 353 822.0 387.0Q803 421 781.0 457.0Q759 493 736 522ZM838 768H855L873 772L958 754Q941 706 919.5 656.0Q898 606 880 571L778 592Q793 623 810.0 669.0Q827 715 838 754ZM258 854 364 818Q332 756 288.5 693.5Q245 631 196.0 577.5Q147 524 97 484Q90 496 77.0 514.5Q64 533 50.0 551.0Q36 569 25 581Q93 630 155.5 703.0Q218 776 258 854ZM168 641 281 753 283 752V262H168ZM252 220H374V72Q374 49 386.5 43.5Q399 38 443 38Q451 38 467.5 38.0Q484 38 505.5 38.0Q527 38 548.5 38.0Q570 38 588.0 38.0Q606 38 617 38Q641 38 653.5 45.0Q666 52 671.5 75.5Q677 99 679 147Q692 137 711.5 128.5Q731 120 752.0 113.5Q773 107 789 103Q782 33 765.5 -5.0Q749 -43 716.0 -57.0Q683 -71 625 -71Q616 -71 596.5 -71.0Q577 -71 552.5 -71.0Q528 -71 503.5 -71.0Q479 -71 459.5 -71.0Q440 -71 431 -71Q360 -71 321.0 -58.5Q282 -46 267.0 -15.0Q252 16 252 70ZM412 253 504 304Q529 280 555.5 251.5Q582 223 604.0 193.5Q626 164 638 139L539 81Q529 106 508.0 136.0Q487 166 462.0 197.0Q437 228 412 253ZM747 204 852 245Q875 209 897.0 167.5Q919 126 936.0 86.0Q953 46 960 14L846 -32Q840 -1 825.0 40.0Q810 81 789.5 124.0Q769 167 747 204ZM129 224 237 180Q224 144 209.5 102.5Q195 61 179.0 22.0Q163 -17 147 -49L34 4Q52 34 69.5 71.5Q87 109 103.0 148.5Q119 188 129 224ZM595 642H710V267H595Z" /></g><g transform="translate(207.3,0) scale(0.05,-0.05)"><path d="M472 788H859V680H472ZM432 437H970V323H432ZM644 532H769V40Q769 -6 757.0 -31.0Q745 -56 714 -70Q683 -84 640.0 -87.5Q597 -91 538 -90Q533 -65 521.5 -32.0Q510 1 497 24Q523 24 548.5 23.5Q574 23 594.0 23.0Q614 23 622 23Q635 23 639.5 27.0Q644 31 644 42ZM813 788H845L873 795L954 736Q924 690 885.0 640.0Q846 590 802.0 545.0Q758 500 712 465Q701 480 680.0 500.0Q659 520 644 532Q678 562 711.0 603.5Q744 645 771.0 687.5Q798 730 813 763ZM48 304 120 388Q161 352 209.0 311.0Q257 270 305.5 227.0Q354 184 396.0 144.5Q438 105 465 72L386 -27Q360 6 319.5 47.5Q279 89 232.0 134.0Q185 179 137.5 223.0Q90 267 48 304ZM48 304Q62 357 76.0 422.5Q90 488 102.0 561.0Q114 634 122.5 707.5Q131 781 136 848L254 842Q248 771 237.0 694.0Q226 617 213.0 541.0Q200 465 185.5 394.5Q171 324 157 267ZM301 708H413V595Q413 537 408.0 469.0Q403 401 386.5 327.0Q370 253 337.0 180.0Q304 107 249.5 37.5Q195 -32 113 -92Q105 -79 90.0 -63.0Q75 -47 58.5 -32.0Q42 -17 28 -8Q103 45 153.0 106.0Q203 167 233.0 232.0Q263 297 277.5 361.5Q292 426 296.5 486.0Q301 546 301 596ZM28 632Q85 634 156.5 637.5Q228 641 308.0 645.5Q388 650 467 654L466 546Q353 538 240.0 531.0Q127 524 39 518Z" /></g>
    </g>

    <g fill="#4F6367">
        <g transform="translate(0,0) scale(0.05,-0.05)"><path d="M91 0V741H239V448H519V741H666V0H519V320H239V0Z" /></g><g transform="translate(37.85,0) scale(0.05,-0.05)"><path d="M323 -14Q245 -14 182.0 21.0Q119 56 81.5 122.0Q44 188 44 280Q44 348 65.5 402.0Q87 456 124.5 494.5Q162 533 208.5 553.5Q255 574 305 574Q382 574 434.0 539.5Q486 505 512.5 444.5Q539 384 539 306Q539 286 537.0 267.5Q535 249 532 238H187Q193 193 214.0 162.0Q235 131 268.0 115.5Q301 100 343 100Q377 100 407.0 109.5Q437 119 468 138L518 48Q477 20 426.0 3.0Q375 -14 323 -14ZM184 337H413Q413 393 387.5 426.5Q362 460 307 460Q278 460 252.0 446.5Q226 433 208.0 405.5Q190 378 184 337Z" /></g><g transform="translate(66.9,0) scale(0.05,-0.05)"><path d="M218 -14Q166 -14 136.0 7.5Q106 29 92.5 67.5Q79 106 79 157V798H226V151Q226 126 235.5 116.0Q245 106 255 106Q260 106 264.0 106.5Q268 107 275 108L293 -1Q280 -6 261.5 -10.0Q243 -14 218 -14Z" /></g><g transform="translate(82.65,0) scale(0.05,-0.05)"><path d="M218 -14Q166 -14 136.0 7.5Q106 29 92.5 67.5Q79 106 79 157V798H226V151Q226 126 235.5 116.0Q245 106 255 106Q260 106 264.0 106.5Q268 107 275 108L293 -1Q280 -6 261.5 -10.0Q243 -14 218 -14Z" /></g><g transform="translate(98.4,0) scale(0.05,-0.05)"><path d="M313 -14Q243 -14 181.5 21.0Q120 56 82.0 121.5Q44 187 44 280Q44 373 82.0 438.5Q120 504 181.5 539.0Q243 574 313 574Q366 574 414.0 554.0Q462 534 500.0 496.5Q538 459 560.0 404.5Q582 350 582 280Q582 187 544.0 121.5Q506 56 444.5 21.0Q383 -14 313 -14ZM313 106Q351 106 377.5 127.5Q404 149 417.5 188.0Q431 227 431 280Q431 333 417.5 372.0Q404 411 377.5 432.5Q351 454 313 454Q275 454 248.5 432.5Q222 411 208.5 372.0Q195 333 195 280Q195 227 208.5 188.0Q222 149 248.5 127.5Q275 106 313 106Z" /></g><g transform="translate(129.70000000000002,0) scale(0.05,-0.05)"><path d="M84 -214 53 -134Q111 -111 142.5 -74.0Q174 -37 174 7L169 112L221 25Q209 14 194.5 9.0Q180 4 164 4Q128 4 100.0 26.5Q72 49 72 91Q72 130 100.0 154.0Q128 178 168 178Q218 178 245.5 139.5Q273 101 273 33Q273 -55 224.0 -119.0Q175 -183 84 -214Z" /></g><g transform="translate(157.3,0) scale(0.05,-0.05)"><path d="M452 850 562 823Q535 743 490.0 670.5Q445 598 395 549Q386 560 369.5 574.5Q353 589 336.5 603.0Q320 617 307 625Q355 665 393.0 725.0Q431 785 452 850ZM450 566 558 535Q532 478 493.0 422.5Q454 367 413 329Q403 339 387.0 352.5Q371 366 354.0 379.0Q337 392 325 400Q363 431 396.5 475.5Q430 520 450 566ZM470 768H868V667H429ZM736 522 832 568Q856 539 879.0 505.5Q902 472 921.5 439.5Q941 407 952 380L851 327Q841 353 822.0 387.0Q803 421 781.0 457.0Q759 493 736 522ZM838 768H855L873 772L958 754Q941 706 919.5 656.0Q898 606 880 571L778 592Q793 623 810.0 669.0Q827 715 838 754ZM258 854 364 818Q332 756 288.5 693.5Q245 631 196.0 577.5Q147 524 97 484Q90 496 77.0 514.5Q64 533 50.0 551.0Q36 569 25 581Q93 630 155.5 703.0Q218 776 258 854ZM168 641 281 753 283 752V262H168ZM252 220H374V72Q374 49 386.5 43.5Q399 38 443 38Q451 38 467.5 38.0Q484 38 505.5 38.0Q527 38 548.5 38.0Q570 38 588.0 38.0Q606 38 617 38Q641 38 653.5 45.0Q666 52 671.5 75.5Q677 99 679 147Q692 137 711.5 128.5Q731 120 752.0 113.5Q773 107 789 103Q782 33 765.5 -5.0Q749 -43 716.0 -57.0Q683 -71 625 -71Q616 -71 596.5 -71.0Q577 -71 552.5 -71.0Q528 -71 503.5 -71.0Q479 -71 459.5 -71.0Q440 -71 431 -71Q360 -71 321.0 -58.5Q282 -46 267.0 -15.0Q252 16 252 70ZM412 253 504 304Q529 280 555.5 251.5Q582 223 604.0 193.5Q626 164 638 139L539 81Q529 106 508.0 136.0Q487 166 462.0 197.0Q437 228 412 253ZM747 204 852 245Q875 209 897.0 167.5Q919 126 936.0 86.0Q953 46 960 14L846 -32Q840 -1 825.0 40.0Q810 81 789.5 124.0Q769 167 747 204ZM129 224 237 180Q224 144 209.5 102.5Q195 61 179.0 22.0Q163 -17 147 -49L34 4Q52 34 69.5 71.5Q87 109 103.0 148.5Q119 188 129 224ZM595 642H710V267H595Z" /></g><g transform="translate(207.3,0) scale(0.05,-0.05)"><path d="M472 788H859V680H472ZM432 437H970V323H432ZM644 532H769V40Q769 -6 757.0 -31.0Q745 -56 714 -70Q683 -84 640.0 -87.5Q597 -91 538 -90Q533 -65 521.5 -32.0Q510 1 497 24Q523 24 548.5 23.5Q574 23 594.0 23.0Q614 23 622 23Q635 23 639.5 27.0Q644 31 644 42ZM813 788H845L873 795L954 736Q924 690 885.0 640.0Q846 590 802.0 545.0Q758 500 712 465Q701 480 680.0 500.0Q659 520 644 532Q678 562 711.0 603.5Q744 645 771.0 687.5Q798 730 813 763ZM48 304 120 388Q161 352 209.0 311.0Q257 270 305.5 227.0Q354 184 396.0 144.5Q438 105 465 72L386 -27Q360 6 319.5 47.5Q279 89 232.0 134.0Q185 179 137.5 223.0Q90 267 48 304ZM48 304Q62 357 76.0 422.5Q90 488 102.0 561.0Q114 634 122.5 707.5Q131 781 136 848L254 842Q248 771 237.0 694.0Q226 617 213.0 541.0Q200 465 185.5 394.5Q171 324 157 267ZM301 708H413V595Q413 537 408.0 469.0Q403 401 386.5 327.0Q370 253 337.0 180.0Q304 107 249.5 37.5Q195 -32 113 -92Q105 -79 90.0 -63.0Q75 -47 58.5 -32.0Q42 -17 28 -8Q103 45 153.0 106.0Q203 167 233.0 232.0Q263 297 277.5 361.5Q292 426 296.5 486.0Q301 546 301 596ZM28 632Q85 634 156.5 637.5Q228 641 308.0 645.5Q388 650 467 654L466 546Q353 538 240.0 531.0Q127 524 39 518Z" /></g>
    </g>

</svg>