<!-- Generated by balatro_text_to_svg.py - https://github.com/Breezebuilder/Steamodded-Wiki/blob/dev/Assets/Scripts/balatro_text_to_svg.py -->
<!--
	 {E:1,C:edition,s:2}YOU WIN!{}
	 YOU WIN!
-->

<svg xmlns="http://www.w3.org/2000/svg" height="128" viewBox="0 0 222 80">
	<defs>
		<path id="exclam" d="m0 8h4v16h-4v-16zm0 18h4v4h-4v-4z"/>
		<path id="I" d="m0 8h12v4h-4v14h4v4h-12v-4h4v-14h-4v-4z"/>
		<path id="N" d="m0 8h10v2h2v20h-4v-18h-4v18h-4v-22z"/>
		<path id="O" d="m2 8h8v2h2v18h-2v2h-8v-2h-2v-18h2v-2zm2 4v14h4v-14h-4z"/>
		<path id="U" d="m0 8h4v18h4v-18h4v20h-2v2h-8v-2h-2v-20z"/>
		<path id="W" d="m0 8h4v18h2v-10h4v10h2v-18h4v20h-2v2h-12v-2h-2v-20z"/>
		<path id="Y" d="m0 8h4v8h4v-8h4v10h-2v2h-2v10h-4v-10h-2v-2h-2v-10z"/>
	</defs>
	<g fill="rgba(0,0,0,0.3)">
		<g transform="translate(9,4) scale(2)">
			<use href="#Y" x="0"/>
			<use href="#O" x="14"/>
			<use href="#U" x="28"/>
			<use href="#W" x="54"/>
			<use href="#I" x="72"/>
			<use href="#N" x="86"/>
			<use href="#exclam" x="100"/>
		</g>
	</g>
	<g>
		<g transform="translate(5,0) scale(2)">
			<animate attributeName="fill" values="#E5D7EC; #FFFEC6; #FFFFB3; #FFFFBC; #E5F3DE; #C1CCFF; #B2B4FF; #C1B8FF; #E5D7EC" dur="4s" repeatCount="indefinite"/>
			<g>
				<g>
					<use href="#Y" x="0"/>
					<use href="#N" x="86"/>
					<animateMotion path="m0 0 a0.85 0.85 0 0 1 1.7 0 a0.85 0.85 0 0 1 -1.7 0" dur="2.4" begin="-2.4" repeatCount="indefinite"/>
				</g>
				<animateMotion path="m0 0 a0.85 0.85 0 0 0 -1.7 0 a0.85 0.85 0 0 0 1.7 0" dur="2.4" begin="-2.4" repeatCount="indefinite"/>
			</g>
			<g>
				<g>
					<use href="#O" x="14"/>
					<use href="#exclam" x="100"/>
					<animateMotion path="m0 0 a0.85 0.85 0 0 1 1.7 0 a0.85 0.85 0 0 1 -1.7 0" dur="2.4" begin="-2" repeatCount="indefinite"/>
				</g>
				<animateMotion path="m0 0 a0.85 0.85 0 0 0 -1.7 0 a0.85 0.85 0 0 0 1.7 0" dur="2.4" begin="-2" repeatCount="indefinite"/>
			</g>
			<g>
				<g>
					<use href="#U" x="28"/>
					<animateMotion path="m0 0 a0.85 0.85 0 0 1 1.7 0 a0.85 0.85 0 0 1 -1.7 0" dur="2.4" begin="-1.6" repeatCount="indefinite"/>
				</g>
				<animateMotion path="m0 0 a0.85 0.85 0 0 0 -1.7 0 a0.85 0.85 0 0 0 1.7 0" dur="2.4" begin="-1.6" repeatCount="indefinite"/>
			</g>
			<g>
				<g>
					<animateMotion path="m0 0 a0.85 0.85 0 0 1 1.7 0 a0.85 0.85 0 0 1 -1.7 0" dur="2.4" begin="-1.2" repeatCount="indefinite"/>
				</g>
				<animateMotion path="m0 0 a0.85 0.85 0 0 0 -1.7 0 a0.85 0.85 0 0 0 1.7 0" dur="2.4" begin="-1.2" repeatCount="indefinite"/>
			</g>
			<g>
				<g>
					<use href="#W" x="54"/>
					<animateMotion path="m0 0 a0.85 0.85 0 0 1 1.7 0 a0.85 0.85 0 0 1 -1.7 0" dur="2.4" begin="-0.8" repeatCount="indefinite"/>
				</g>
				<animateMotion path="m0 0 a0.85 0.85 0 0 0 -1.7 0 a0.85 0.85 0 0 0 1.7 0" dur="2.4" begin="-0.8" repeatCount="indefinite"/>
			</g>
			<g>
				<g>
					<use href="#I" x="72"/>
					<animateMotion path="m0 0 a0.85 0.85 0 0 1 1.7 0 a0.85 0.85 0 0 1 -1.7 0" dur="2.4" begin="-0.4" repeatCount="indefinite"/>
				</g>
				<animateMotion path="m0 0 a0.85 0.85 0 0 0 -1.7 0 a0.85 0.85 0 0 0 1.7 0" dur="2.4" begin="-0.4" repeatCount="indefinite"/>
			</g>
		</g>
	</g>
</svg>