<!-- Generated by balatro_text_to_svg.py - https://github.com/Breezebuilder/Steamodded-Wiki/blob/dev/Assets/Scripts/balatro_text_to_svg.py -->
<!--
	 {C:chips}+50{} Chips
	 +50 Chips
-->

<svg xmlns="http://www.w3.org/2000/svg" height="128" viewBox="0 0 126 40">
	<defs>
		<path id="plus" d="m4 14h4v4h4v4h-4v4h-4v-4h-4v-4h4v-4z"/>
		<path id="zero" d="m2 8h8v2h2v18h-2v2h-8v-2h-2v-18h2v-2zm2 4v14h4v-14h-4z"/>
		<path id="five" d="m0 8h12v4h-8v4h6v2h2v10h-2v2h-10v-4h8v-6h-8v-12z"/>
		<path id="C" d="m2 8h10v4h-8v14h8v4h-10v-2h-2v-18h2v-2z"/>
		<path id="h" d="m0 8h4v6h6v2h2v14h-4v-12h-4v12h-4v-22z"/>
		<path id="i" d="m0 8h4v4h-4v-4zm0 6h4v16h-4v-16z"/>
		<path id="p" d="m2 14h8v2h2v12h-2v2h-6v6h-4v-20h2v-2zm2 4v8h4v-8h-4z"/>
		<path id="s" d="m2 14h10v4h-8v2h6v2h2v6h-2v2h-10v-4h8v-2h-6v-2h-2v-6h2v-2z"/>
	</defs>
	<g fill="rgba(0,0,0,0.3)">
		<g transform="translate(7,2)">
			<use href="#plus" x="0"/>
			<use href="#five" x="14"/>
			<use href="#zero" x="28"/>
		</g>
		<g transform="translate(49,2)">
			<use href="#C" x="12"/>
			<use href="#h" x="26"/>
			<use href="#i" x="40"/>
			<use href="#p" x="46"/>
			<use href="#s" x="60"/>
		</g>
	</g>
	<g>
		<g fill="#009DFFFF" transform="translate(5,0)">
			<use href="#plus" x="0"/>
			<use href="#five" x="14"/>
			<use href="#zero" x="28"/>
		</g>
		<g fill="#FFFFFFFF" transform="translate(47,0)">
			<use href="#C" x="12"/>
			<use href="#h" x="26"/>
			<use href="#i" x="40"/>
			<use href="#p" x="46"/>
			<use href="#s" x="60"/>
		</g>
	</g>
</svg>