<!-- Generated by balatro_text_to_svg.py - https://github.com/Breezebuilder/Steamodded-Wiki/blob/dev/Assets/Scripts/balatro_text_to_svg.py -->
<!--
	 {C:red}+1{} discard
	 +1 discard
-->

<svg xmlns="http://www.w3.org/2000/svg" height="128" viewBox="0 0 140 40">
	<defs>
		<path id="plus" d="m4 14h4v4h4v4h-4v4h-4v-4h-4v-4h4v-4z"/>
		<path id="one" d="m4 8h4v18h4v4h-12v-4h4v-12h-4v-4h4v-2z"/>
		<path id="a" d="m0 14h10v2h2v14h-10v-2h-2v-6h2v-2h6v-2h-8v-4zm4 10v2h4v-2h-4z"/>
		<path id="c" d="m2 14h10v4h-8v8h8v4h-10v-2h-2v-12h2v-2z"/>
		<path id="d" d="m8 8h4v22h-10v-2h-2v-12h2v-2h6v-6zm-4 10v8h4v-8h-4z"/>
		<path id="i" d="m0 8h4v4h-4v-4zm0 6h4v16h-4v-16z"/>
		<path id="r" d="m0 14h4v2h2v-2h6v4h-6v2h-2v10h-4v-16z"/>
		<path id="s" d="m2 14h10v4h-8v2h6v2h2v6h-2v2h-10v-4h8v-2h-6v-2h-2v-6h2v-2z"/>
	</defs>
	<g fill="rgba(0,0,0,0.3)">
		<g transform="translate(7,2)">
			<use href="#plus" x="0"/>
			<use href="#one" x="14"/>
		</g>
		<g transform="translate(35,2)">
			<use href="#d" x="12"/>
			<use href="#i" x="26"/>
			<use href="#s" x="32"/>
			<use href="#c" x="46"/>
			<use href="#a" x="60"/>
			<use href="#r" x="74"/>
			<use href="#d" x="88"/>
		</g>
	</g>
	<g>
		<g fill="#FE5F55FF" transform="translate(5,0)">
			<use href="#plus" x="0"/>
			<use href="#one" x="14"/>
		</g>
		<g fill="#4F6367FF" transform="translate(33,0)">
			<use href="#d" x="12"/>
			<use href="#i" x="26"/>
			<use href="#s" x="32"/>
			<use href="#c" x="46"/>
			<use href="#a" x="60"/>
			<use href="#r" x="74"/>
			<use href="#d" x="88"/>
		</g>
	</g>
</svg>