<!-- Generated by balatro_text_to_svg.py - https://github.com/Breezebuilder/Steamodded-Wiki/blob/dev/Assets/Scripts/balatro_text_to_svg.py -->
<!--
	 {B:1,V:2}Spa{B:2,V:1}rts{}
	 Sparts
-->

<svg xmlns="http://www.w3.org/2000/svg" height="128" viewBox="0 0 106 40">
	<defs>
		<path id="S" d="m2 8h10v4h-8v4h6v2h2v10h-2v2h-10v-4h8v-6h-6v-2h-2v-8h2v-2z"/>
		<path id="a" d="m0 14h10v2h2v14h-10v-2h-2v-6h2v-2h6v-2h-8v-4zm4 10v2h4v-2h-4z"/>
		<path id="p" d="m2 14h8v2h2v12h-2v2h-6v6h-4v-20h2v-2zm2 4v8h4v-8h-4z"/>
		<path id="r" d="m0 14h4v2h2v-2h6v4h-6v2h-2v10h-4v-16z"/>
		<path id="s" d="m2 14h10v4h-8v2h6v2h2v6h-2v2h-10v-4h8v-2h-6v-2h-2v-6h2v-2z"/>
		<path id="t" d="m2 8h4v6h6v4h-6v8h6v4h-8v-2h-2v-10h-2v-4h2v-6z"/>
	</defs>
	<g>
		<path d="m8 0h40l4 4v28l-4 4h-40l-4-4v-28z" fill="#403995FF"/>
		<path d="m56 0h40l4 4v28l-4 4h-40l-4-4v-28z" fill="#F03464FF"/>
	</g>
	<g>
		<g fill="#F03464FF" transform="translate(5,0)">
			<use href="#S" x="3.0"/>
			<use href="#p" x="17.0"/>
			<use href="#a" x="31.0"/>
		</g>
		<g fill="#403995FF" transform="translate(47,0)">
			<use href="#r" x="9.0"/>
			<use href="#t" x="23.0"/>
			<use href="#s" x="37.0"/>
		</g>
	</g>
</svg>