<!-- Generated by balatro_text_to_svg.py - https://github.com/Breezebuilder/Steamodded-Wiki/blob/dev/Assets/Scripts/balatro_text_to_svg.py -->
<!--
	 {C:mult}+4{} Mult
	 +4 Mult
-->

<svg xmlns="http://www.w3.org/2000/svg" height="128" viewBox="0 0 102 40">
	<defs>
		<path id="plus" d="m4 14h4v4h4v4h-4v4h-4v-4h-4v-4h4v-4z"/>
		<path id="four" d="m0 8h4v10h4v-10h4v22h-4v-8h-6v-2h-2v-12z"/>
		<path id="M" d="m0 8h14v2h2v20h-4v-18h-2v14h-4v-14h-2v18h-4v-22z"/>
		<path id="l" d="m0 8h4v22h-4v-22z"/>
		<path id="t" d="m2 8h4v6h6v4h-6v8h6v4h-8v-2h-2v-10h-2v-4h2v-6z"/>
		<path id="u" d="m0 14h4v12h4v-12h4v14h-2v2h-8v-2h-2v-14z"/>
	</defs>
	<g fill="rgba(0,0,0,0.3)">
		<g transform="translate(7,2)">
			<use href="#plus" x="0"/>
			<use href="#four" x="14"/>
		</g>
		<g transform="translate(35,2)">
			<use href="#M" x="12"/>
			<use href="#u" x="30"/>
			<use href="#l" x="44"/>
			<use href="#t" x="50"/>
		</g>
	</g>
	<g>
		<g fill="#FE5F55FF" transform="translate(5,0)">
			<use href="#plus" x="0"/>
			<use href="#four" x="14"/>
		</g>
		<g fill="#4F6367FF" transform="translate(33,0)">
			<use href="#M" x="12"/>
			<use href="#u" x="30"/>
			<use href="#l" x="44"/>
			<use href="#t" x="50"/>
		</g>
	</g>
</svg>