<!-- Generated by balatro_text_to_svg.py - https://github.com/Breezebuilder/Steamodded-Wiki/blob/dev/Assets/Scripts/balatro_text_to_svg.py -->
<!--
	 {C:gold}Android{}
	 Android
-->

<svg xmlns="http://www.w3.org/2000/svg" height="128" viewBox="0 0 100 40">
	<defs>
		<path id="A" d="m2 8h8v2h2v20h-4v-8h-4v8h-4v-20h2v-2zm2 4v6h4v-6h-4z"/>
		<path id="d" d="m8 8h4v22h-10v-2h-2v-12h2v-2h6v-6zm-4 10v8h4v-8h-4z"/>
		<path id="i" d="m0 8h4v4h-4v-4zm0 6h4v16h-4v-16z"/>
		<path id="n" d="m0 14h10v2h2v14h-4v-12h-4v12h-4v-16z"/>
		<path id="o" d="m2 14h8v2h2v12h-2v2h-8v-2h-2v-12h2v-2zm2 4v8h4v-8h-4z"/>
		<path id="r" d="m0 14h4v2h2v-2h6v4h-6v2h-2v10h-4v-16z"/>
	</defs>
	<g fill="rgba(0,0,0,0.3)">
		<g transform="translate(7,2)">
			<use href="#A" x="0"/>
			<use href="#n" x="14"/>
			<use href="#d" x="28"/>
			<use href="#r" x="42"/>
			<use href="#o" x="56"/>
			<use href="#i" x="70"/>
			<use href="#d" x="76"/>
		</g>
	</g>
	<g>
		<g fill="#EAC058FF" transform="translate(5,0)">
			<use href="#A" x="0"/>
			<use href="#n" x="14"/>
			<use href="#d" x="28"/>
			<use href="#r" x="42"/>
			<use href="#o" x="56"/>
			<use href="#i" x="70"/>
			<use href="#d" x="76"/>
		</g>
	</g>
</svg>