<!-- Generated by balatro_text_to_svg.py - https://github.com/Breezebuilder/Steamodded-Wiki/blob/dev/Assets/Scripts/balatro_text_to_svg.py -->
<!--
	 {C:tarot}The Fool{}
	 The Fool
-->

<svg xmlns="http://www.w3.org/2000/svg" height="128" viewBox="0 0 112 40">
	<defs>
		<path id="F" d="m2 8h10v4h-8v4h6v4h-6v10h-4v-20h2v-2z"/>
		<path id="T" d="m0 8h12v4h-4v18h-4v-18h-4v-4z"/>
		<path id="e" d="m2 14h8v2h2v8h-8v2h8v4h-10v-2h-2v-12h2v-2zm2 4v2h4v-2h-4z"/>
		<path id="h" d="m0 8h4v6h6v2h2v14h-4v-12h-4v12h-4v-22z"/>
		<path id="l" d="m0 8h4v22h-4v-22z"/>
		<path id="o" d="m2 14h8v2h2v12h-2v2h-8v-2h-2v-12h2v-2zm2 4v8h4v-8h-4z"/>
	</defs>
	<g fill="rgba(0,0,0,0.3)">
		<g transform="translate(7,2)">
			<use href="#T" x="0"/>
			<use href="#h" x="14"/>
			<use href="#e" x="28"/>
			<use href="#F" x="54"/>
			<use href="#o" x="68"/>
			<use href="#o" x="82"/>
			<use href="#l" x="96"/>
		</g>
	</g>
	<g>
		<g fill="#A782D1FF" transform="translate(5,0)">
			<use href="#T" x="0"/>
			<use href="#h" x="14"/>
			<use href="#e" x="28"/>
			<use href="#F" x="54"/>
			<use href="#o" x="68"/>
			<use href="#o" x="82"/>
			<use href="#l" x="96"/>
		</g>
	</g>
</svg>