<svg xmlns="http://www.w3.org/2000/svg"
    width="260.3" height="56.10000000000001"
    viewBox="0 -42.400000000000006 260.3 56.10000000000001">

    <g transform="translate(3,3)"
       fill="black" opacity="0.5">
        <g transform="translate(0,0) scale(0.05,-0.05)"><path d="M91 0V741H239V448H519V741H666V0H519V320H239V0Z" /></g><g transform="translate(37.85,0) scale(0.05,-0.05)"><path d="M323 -14Q245 -14 182.0 21.0Q119 56 81.5 122.0Q44 188 44 280Q44 348 65.5 402.0Q87 456 124.5 494.5Q162 533 208.5 553.5Q255 574 305 574Q382 574 434.0 539.5Q486 505 512.5 444.5Q539 384 539 306Q539 286 537.0 267.5Q535 249 532 238H187Q193 193 214.0 162.0Q235 131 268.0 115.5Q301 100 343 100Q377 100 407.0 109.5Q437 119 468 138L518 48Q477 20 426.0 3.0Q375 -14 323 -14ZM184 337H413Q413 393 387.5 426.5Q362 460 307 460Q278 460 252.0 446.5Q226 433 208.0 405.5Q190 378 184 337Z" /></g><g transform="translate(66.9,0) scale(0.05,-0.05)"><path d="M218 -14Q166 -14 136.0 7.5Q106 29 92.5 67.5Q79 106 79 157V798H226V151Q226 126 235.5 116.0Q245 106 255 106Q260 106 264.0 106.5Q268 107 275 108L293 -1Q280 -6 261.5 -10.0Q243 -14 218 -14Z" /></g><g transform="translate(82.65,0) scale(0.05,-0.05)"><path d="M218 -14Q166 -14 136.0 7.5Q106 29 92.5 67.5Q79 106 79 157V798H226V151Q226 126 235.5 116.0Q245 106 255 106Q260 106 264.0 106.5Q268 107 275 108L293 -1Q280 -6 261.5 -10.0Q243 -14 218 -14Z" /></g><g transform="translate(98.4,0) scale(0.05,-0.05)"><path d="M313 -14Q243 -14 181.5 21.0Q120 56 82.0 121.5Q44 187 44 280Q44 373 82.0 438.5Q120 504 181.5 539.0Q243 574 313 574Q366 574 414.0 554.0Q462 534 500.0 496.5Q538 459 560.0 404.5Q582 350 582 280Q582 187 544.0 121.5Q506 56 444.5 21.0Q383 -14 313 -14ZM313 106Q351 106 377.5 127.5Q404 149 417.5 188.0Q431 227 431 280Q431 333 417.5 372.0Q404 411 377.5 432.5Q351 454 313 454Q275 454 248.5 432.5Q222 411 208.5 372.0Q195 333 195 280Q195 227 208.5 188.0Q222 149 248.5 127.5Q275 106 313 106Z" /></g><g transform="translate(129.70000000000002,0) scale(0.05,-0.05)"><path d="M84 -214 53 -134Q111 -111 142.5 -74.0Q174 -37 174 7L169 112L221 25Q209 14 194.5 9.0Q180 4 164 4Q128 4 100.0 26.5Q72 49 72 91Q72 130 100.0 154.0Q128 178 168 178Q218 178 245.5 139.5Q273 101 273 33Q273 -55 224.0 -119.0Q175 -183 84 -214Z" /></g><g transform="translate(157.3,0) scale(0.05,-0.05)"><path d="M451 846 569 819Q548 741 518.0 664.5Q488 588 452.5 521.5Q417 455 377 405Q366 416 348.5 431.0Q331 446 312.5 460.5Q294 475 280 484Q319 527 351.0 585.0Q383 643 408.5 710.0Q434 777 451 846ZM423 402 540 378Q526 314 504.5 252.5Q483 191 457.0 136.5Q431 82 403 41Q392 51 373.0 63.5Q354 76 334.5 87.5Q315 99 301 106Q344 159 375.0 239.0Q406 319 423 402ZM473 670H884V559H429ZM588 621H707V44Q707 2 698.0 -25.0Q689 -52 661 -67Q635 -81 598.5 -86.0Q562 -91 513 -91Q510 -64 497.5 -29.0Q485 6 472 30Q504 29 532.5 29.0Q561 29 571 29Q580 29 584.0 32.5Q588 36 588 46ZM743 376 850 412Q877 360 899.0 301.5Q921 243 937.0 186.5Q953 130 960 85L845 45Q839 89 824.5 147.0Q810 205 789.0 264.5Q768 324 743 376ZM851 670H867L886 674L971 658Q962 597 950.0 532.5Q938 468 927 423L825 442Q829 469 834.0 505.0Q839 541 844.0 580.5Q849 620 851 655ZM237 846 350 810Q318 726 274.0 640.5Q230 555 179.0 478.5Q128 402 73 345Q68 360 56.5 383.5Q45 407 32.0 431.0Q19 455 9 470Q54 516 96.5 576.0Q139 636 175.5 705.0Q212 774 237 846ZM141 569 255 683V682V-88H141Z" /></g><g transform="translate(207.3,0) scale(0.05,-0.05)"><path d="M332 651H352L372 655L446 638Q431 446 386.5 306.0Q342 166 269.0 69.0Q196 -28 90 -89Q82 -74 69.5 -56.5Q57 -39 43.0 -22.0Q29 -5 16 6Q108 52 174.0 139.0Q240 226 279.5 349.0Q319 472 332 628ZM472 788H859V680H472ZM432 437H970V323H432ZM644 532H769V40Q769 -6 757.0 -31.0Q745 -56 714 -70Q683 -84 640.0 -87.5Q597 -91 538 -90Q533 -65 521.5 -32.0Q510 1 497 24Q523 24 548.5 23.5Q574 23 594.0 23.0Q614 23 622 23Q635 23 639.5 27.0Q644 31 644 42ZM813 788H845L873 795L954 736Q924 690 885.0 640.0Q846 590 802.0 545.0Q758 500 712 465Q701 480 680.0 500.0Q659 520 644 532Q678 562 711.0 603.5Q744 645 771.0 687.5Q798 730 813 763ZM33 651H364V541H33ZM43 303 114 391Q159 358 209.0 319.5Q259 281 306.5 240.5Q354 200 394.0 161.5Q434 123 459 90L380 -13Q355 21 317.0 62.0Q279 103 232.5 145.0Q186 187 137.0 228.0Q88 269 43 303ZM43 303Q60 356 77.0 421.5Q94 487 108.5 560.0Q123 633 134.5 706.5Q146 780 152 848L272 839Q263 768 249.0 690.5Q235 613 218.5 536.0Q202 459 184.5 388.5Q167 318 150 260Z" /></g>
    </g>

    <g fill="white">
        <g transform="translate(0,0) scale(0.05,-0.05)"><path d="M91 0V741H239V448H519V741H666V0H519V320H239V0Z" /></g><g transform="translate(37.85,0) scale(0.05,-0.05)"><path d="M323 -14Q245 -14 182.0 21.0Q119 56 81.5 122.0Q44 188 44 280Q44 348 65.5 402.0Q87 456 124.5 494.5Q162 533 208.5 553.5Q255 574 305 574Q382 574 434.0 539.5Q486 505 512.5 444.5Q539 384 539 306Q539 286 537.0 267.5Q535 249 532 238H187Q193 193 214.0 162.0Q235 131 268.0 115.5Q301 100 343 100Q377 100 407.0 109.5Q437 119 468 138L518 48Q477 20 426.0 3.0Q375 -14 323 -14ZM184 337H413Q413 393 387.5 426.5Q362 460 307 460Q278 460 252.0 446.5Q226 433 208.0 405.5Q190 378 184 337Z" /></g><g transform="translate(66.9,0) scale(0.05,-0.05)"><path d="M218 -14Q166 -14 136.0 7.5Q106 29 92.5 67.5Q79 106 79 157V798H226V151Q226 126 235.5 116.0Q245 106 255 106Q260 106 264.0 106.5Q268 107 275 108L293 -1Q280 -6 261.5 -10.0Q243 -14 218 -14Z" /></g><g transform="translate(82.65,0) scale(0.05,-0.05)"><path d="M218 -14Q166 -14 136.0 7.5Q106 29 92.5 67.5Q79 106 79 157V798H226V151Q226 126 235.5 116.0Q245 106 255 106Q260 106 264.0 106.5Q268 107 275 108L293 -1Q280 -6 261.5 -10.0Q243 -14 218 -14Z" /></g><g transform="translate(98.4,0) scale(0.05,-0.05)"><path d="M313 -14Q243 -14 181.5 21.0Q120 56 82.0 121.5Q44 187 44 280Q44 373 82.0 438.5Q120 504 181.5 539.0Q243 574 313 574Q366 574 414.0 554.0Q462 534 500.0 496.5Q538 459 560.0 404.5Q582 350 582 280Q582 187 544.0 121.5Q506 56 444.5 21.0Q383 -14 313 -14ZM313 106Q351 106 377.5 127.5Q404 149 417.5 188.0Q431 227 431 280Q431 333 417.5 372.0Q404 411 377.5 432.5Q351 454 313 454Q275 454 248.5 432.5Q222 411 208.5 372.0Q195 333 195 280Q195 227 208.5 188.0Q222 149 248.5 127.5Q275 106 313 106Z" /></g><g transform="translate(129.70000000000002,0) scale(0.05,-0.05)"><path d="M84 -214 53 -134Q111 -111 142.5 -74.0Q174 -37 174 7L169 112L221 25Q209 14 194.5 9.0Q180 4 164 4Q128 4 100.0 26.5Q72 49 72 91Q72 130 100.0 154.0Q128 178 168 178Q218 178 245.5 139.5Q273 101 273 33Q273 -55 224.0 -119.0Q175 -183 84 -214Z" /></g><g transform="translate(157.3,0) scale(0.05,-0.05)"><path d="M451 846 569 819Q548 741 518.0 664.5Q488 588 452.5 521.5Q417 455 377 405Q366 416 348.5 431.0Q331 446 312.5 460.5Q294 475 280 484Q319 527 351.0 585.0Q383 643 408.5 710.0Q434 777 451 846ZM423 402 540 378Q526 314 504.5 252.5Q483 191 457.0 136.5Q431 82 403 41Q392 51 373.0 63.5Q354 76 334.5 87.5Q315 99 301 106Q344 159 375.0 239.0Q406 319 423 402ZM473 670H884V559H429ZM588 621H707V44Q707 2 698.0 -25.0Q689 -52 661 -67Q635 -81 598.5 -86.0Q562 -91 513 -91Q510 -64 497.5 -29.0Q485 6 472 30Q504 29 532.5 29.0Q561 29 571 29Q580 29 584.0 32.5Q588 36 588 46ZM743 376 850 412Q877 360 899.0 301.5Q921 243 937.0 186.5Q953 130 960 85L845 45Q839 89 824.5 147.0Q810 205 789.0 264.5Q768 324 743 376ZM851 670H867L886 674L971 658Q962 597 950.0 532.5Q938 468 927 423L825 442Q829 469 834.0 505.0Q839 541 844.0 580.5Q849 620 851 655ZM237 846 350 810Q318 726 274.0 640.5Q230 555 179.0 478.5Q128 402 73 345Q68 360 56.5 383.5Q45 407 32.0 431.0Q19 455 9 470Q54 516 96.5 576.0Q139 636 175.5 705.0Q212 774 237 846ZM141 569 255 683V682V-88H141Z" /></g><g transform="translate(207.3,0) scale(0.05,-0.05)"><path d="M332 651H352L372 655L446 638Q431 446 386.5 306.0Q342 166 269.0 69.0Q196 -28 90 -89Q82 -74 69.5 -56.5Q57 -39 43.0 -22.0Q29 -5 16 6Q108 52 174.0 139.0Q240 226 279.5 349.0Q319 472 332 628ZM472 788H859V680H472ZM432 437H970V323H432ZM644 532H769V40Q769 -6 757.0 -31.0Q745 -56 714 -70Q683 -84 640.0 -87.5Q597 -91 538 -90Q533 -65 521.5 -32.0Q510 1 497 24Q523 24 548.5 23.5Q574 23 594.0 23.0Q614 23 622 23Q635 23 639.5 27.0Q644 31 644 42ZM813 788H845L873 795L954 736Q924 690 885.0 640.0Q846 590 802.0 545.0Q758 500 712 465Q701 480 680.0 500.0Q659 520 644 532Q678 562 711.0 603.5Q744 645 771.0 687.5Q798 730 813 763ZM33 651H364V541H33ZM43 303 114 391Q159 358 209.0 319.5Q259 281 306.5 240.5Q354 200 394.0 161.5Q434 123 459 90L380 -13Q355 21 317.0 62.0Q279 103 232.5 145.0Q186 187 137.0 228.0Q88 269 43 303ZM43 303Q60 356 77.0 421.5Q94 487 108.5 560.0Q123 633 134.5 706.5Q146 780 152 848L272 839Q263 768 249.0 690.5Q235 613 218.5 536.0Q202 459 184.5 388.5Q167 318 150 260Z" /></g>
    </g>

</svg>