<!-- Generated by balatro_text_to_svg.py - https://github.com/Breezebuilder/Steamodded-Wiki/blob/dev/Assets/Scripts/balatro_text_to_svg.py -->
<!--
	 {X:gold} W I D E {}
	 WIDE
-->

<svg xmlns="http://www.w3.org/2000/svg" height="128" viewBox="0 0 76 40">
	<defs>
		<path id="D" d="m0 8h10v2h2v18h-2v2h-10v-22zm4 4v14h4v-14h-4z"/>
		<path id="E" d="m2 8h10v4h-8v4h6v4h-6v6h8v4h-10v-2h-2v-18h2v-2z"/>
		<path id="I" d="m0 8h12v4h-4v14h4v4h-12v-4h4v-14h-4v-4z"/>
		<path id="W" d="m0 8h4v18h2v-10h4v10h2v-18h4v20h-2v2h-12v-2h-2v-20z"/>
	</defs>
	<g>
		<path d="m8 0h58l4 4v28l-4 4h-58l-4-4v-28z" fill="#EAC058FF"/>
	</g>
	<g>
		<g fill="#4F6367FF" transform="translate(5,0)">
			<use href="#W" x="3.0"/>
			<use href="#I" x="21.0"/>
			<use href="#D" x="35.0"/>
			<use href="#E" x="49.0"/>
		</g>
	</g>
</svg>