<svg xmlns="http://www.w3.org/2000/svg"
    width="390.3" height="56.10000000000001"
    viewBox="0 -41.900000000000006 390.3 56.10000000000001">

    <g transform="translate(3,3.5)"
       fill="black" opacity="0.3">
        <g transform="translate(0,0) scale(0.05,-0.05)"><path d="M91 0V741H239V448H519V741H666V0H519V320H239V0Z" /></g><g transform="translate(37.85,0) scale(0.05,-0.05)"><path d="M323 -14Q245 -14 182.0 21.0Q119 56 81.5 122.0Q44 188 44 280Q44 348 65.5 402.0Q87 456 124.5 494.5Q162 533 208.5 553.5Q255 574 305 574Q382 574 434.0 539.5Q486 505 512.5 444.5Q539 384 539 306Q539 286 537.0 267.5Q535 249 532 238H187Q193 193 214.0 162.0Q235 131 268.0 115.5Q301 100 343 100Q377 100 407.0 109.5Q437 119 468 138L518 48Q477 20 426.0 3.0Q375 -14 323 -14ZM184 337H413Q413 393 387.5 426.5Q362 460 307 460Q278 460 252.0 446.5Q226 433 208.0 405.5Q190 378 184 337Z" /></g><g transform="translate(66.9,0) scale(0.05,-0.05)"><path d="M218 -14Q166 -14 136.0 7.5Q106 29 92.5 67.5Q79 106 79 157V798H226V151Q226 126 235.5 116.0Q245 106 255 106Q260 106 264.0 106.5Q268 107 275 108L293 -1Q280 -6 261.5 -10.0Q243 -14 218 -14Z" /></g><g transform="translate(82.65,0) scale(0.05,-0.05)"><path d="M218 -14Q166 -14 136.0 7.5Q106 29 92.5 67.5Q79 106 79 157V798H226V151Q226 126 235.5 116.0Q245 106 255 106Q260 106 264.0 106.5Q268 107 275 108L293 -1Q280 -6 261.5 -10.0Q243 -14 218 -14Z" /></g><g transform="translate(98.4,0) scale(0.05,-0.05)"><path d="M313 -14Q243 -14 181.5 21.0Q120 56 82.0 121.5Q44 187 44 280Q44 373 82.0 438.5Q120 504 181.5 539.0Q243 574 313 574Q366 574 414.0 554.0Q462 534 500.0 496.5Q538 459 560.0 404.5Q582 350 582 280Q582 187 544.0 121.5Q506 56 444.5 21.0Q383 -14 313 -14ZM313 106Q351 106 377.5 127.5Q404 149 417.5 188.0Q431 227 431 280Q431 333 417.5 372.0Q404 411 377.5 432.5Q351 454 313 454Q275 454 248.5 432.5Q222 411 208.5 372.0Q195 333 195 280Q195 227 208.5 188.0Q222 149 248.5 127.5Q275 106 313 106Z" /></g><g transform="translate(129.70000000000002,0) scale(0.05,-0.05)"><path d="M84 -214 53 -134Q111 -111 142.5 -74.0Q174 -37 174 7L169 112L221 25Q209 14 194.5 9.0Q180 4 164 4Q128 4 100.0 26.5Q72 49 72 91Q72 130 100.0 154.0Q128 178 168 178Q218 178 245.5 139.5Q273 101 273 33Q273 -55 224.0 -119.0Q175 -183 84 -214Z" /></g><g transform="translate(157.3,0) scale(0.05,-0.05)"><path d="M636 837H769V164H636ZM732 573H892V463H732ZM172 34H802V-73H172ZM172 234H306V-14H172ZM298 778Q369 778 426.0 748.0Q483 718 516.5 665.0Q550 612 550 543Q550 475 516.5 421.5Q483 368 426.0 337.5Q369 307 298 307Q227 307 170.0 337.5Q113 368 80.0 421.5Q47 475 47 543Q47 612 80.0 665.0Q113 718 170.0 748.0Q227 778 298 778ZM298 663Q264 663 236.5 648.5Q209 634 193.0 607.5Q177 581 177 543Q177 505 193.0 478.5Q209 452 236.5 437.5Q264 423 298 423Q333 423 360.5 437.5Q388 452 404.0 478.5Q420 505 420 543Q420 581 404.0 607.5Q388 634 360.5 648.5Q333 663 298 663Z" /></g><g transform="translate(203.3,0) scale(0.05,-0.05)"><path d="M94 791H227V401H94ZM94 428H170Q250 428 316.0 430.0Q382 432 442.5 438.5Q503 445 564 456L580 351Q516 338 453.0 331.5Q390 325 321.5 322.5Q253 320 170 320H94ZM682 838H816V282H682ZM462 755H715V654H462ZM462 596H715V495H462ZM502 270Q649 270 734.0 222.5Q819 175 819 91Q819 5 734.0 -42.5Q649 -90 502 -90Q355 -90 270.0 -42.5Q185 5 185 91Q185 175 270.0 222.5Q355 270 502 270ZM502 167Q442 167 401.0 159.0Q360 151 338.5 133.5Q317 116 317 91Q317 65 338.5 47.5Q360 30 401.0 21.5Q442 13 502 13Q562 13 603.0 21.5Q644 30 665.0 47.5Q686 65 686 91Q686 116 665.0 133.5Q644 151 603.0 159.0Q562 167 502 167Z" /></g><g transform="translate(249.3,0) scale(0.05,-0.05)"><path d="M634 837H767V-89H634ZM737 476H900V366H737ZM36 701H576V595H36ZM308 542Q375 542 428.0 513.5Q481 485 511.5 436.0Q542 387 542 322Q542 257 511.5 207.5Q481 158 428.5 129.5Q376 101 308 101Q241 101 187.5 129.5Q134 158 103.5 207.5Q73 257 73 322Q73 387 103.5 436.0Q134 485 187.5 513.5Q241 542 308 542ZM308 434Q276 434 252.0 421.0Q228 408 214.0 383.0Q200 358 200 322Q200 287 214.0 261.5Q228 236 252.0 222.5Q276 209 308 209Q339 209 363.0 222.5Q387 236 401.0 261.5Q415 287 415 322Q415 358 401.0 383.0Q387 408 363.0 421.0Q339 434 308 434ZM240 822H374V660H240Z" /></g><g transform="translate(295.3,0) scale(0.05,-0.05)"><path d="M405 526H559V418H405ZM208 757H309V602Q309 523 298.0 447.0Q287 371 262.5 304.0Q238 237 198.5 183.5Q159 130 103 96L23 196Q75 227 110.0 272.0Q145 317 167.0 371.0Q189 425 198.5 483.5Q208 542 208 602ZM237 757H336V608Q336 551 344.5 495.0Q353 439 372.0 388.0Q391 337 422.5 294.0Q454 251 502 220L429 116Q375 150 337.5 202.5Q300 255 278.0 321.0Q256 387 246.5 460.0Q237 533 237 608ZM709 838H836V-88H709ZM521 823H645V-47H521Z" /></g><g transform="translate(341.3,0) scale(0.05,-0.05)"><path d="M225 367H358V108H225ZM561 367H694V108H561ZM41 127H880V19H41ZM459 792Q559 792 637.5 761.0Q716 730 760.5 674.5Q805 619 805 543Q805 468 760.5 412.5Q716 357 637.5 326.0Q559 295 459 295Q360 295 281.5 326.0Q203 357 158.0 412.5Q113 468 113 543Q113 619 158.0 674.5Q203 730 281.5 761.0Q360 792 459 792ZM459 689Q395 689 346.5 671.5Q298 654 271.0 622.0Q244 590 244 543Q244 498 271.0 465.5Q298 433 346.5 415.5Q395 398 459 398Q524 398 572.5 415.5Q621 433 647.5 465.5Q674 498 674 543Q674 590 647.5 622.0Q621 654 572.5 671.5Q524 689 459 689Z" /></g>
    </g>

    <g fill="white">
        <g transform="translate(0,0) scale(0.05,-0.05)"><path d="M91 0V741H239V448H519V741H666V0H519V320H239V0Z" /></g><g transform="translate(37.85,0) scale(0.05,-0.05)"><path d="M323 -14Q245 -14 182.0 21.0Q119 56 81.5 122.0Q44 188 44 280Q44 348 65.5 402.0Q87 456 124.5 494.5Q162 533 208.5 553.5Q255 574 305 574Q382 574 434.0 539.5Q486 505 512.5 444.5Q539 384 539 306Q539 286 537.0 267.5Q535 249 532 238H187Q193 193 214.0 162.0Q235 131 268.0 115.5Q301 100 343 100Q377 100 407.0 109.5Q437 119 468 138L518 48Q477 20 426.0 3.0Q375 -14 323 -14ZM184 337H413Q413 393 387.5 426.5Q362 460 307 460Q278 460 252.0 446.5Q226 433 208.0 405.5Q190 378 184 337Z" /></g><g transform="translate(66.9,0) scale(0.05,-0.05)"><path d="M218 -14Q166 -14 136.0 7.5Q106 29 92.5 67.5Q79 106 79 157V798H226V151Q226 126 235.5 116.0Q245 106 255 106Q260 106 264.0 106.5Q268 107 275 108L293 -1Q280 -6 261.5 -10.0Q243 -14 218 -14Z" /></g><g transform="translate(82.65,0) scale(0.05,-0.05)"><path d="M218 -14Q166 -14 136.0 7.5Q106 29 92.5 67.5Q79 106 79 157V798H226V151Q226 126 235.5 116.0Q245 106 255 106Q260 106 264.0 106.5Q268 107 275 108L293 -1Q280 -6 261.5 -10.0Q243 -14 218 -14Z" /></g><g transform="translate(98.4,0) scale(0.05,-0.05)"><path d="M313 -14Q243 -14 181.5 21.0Q120 56 82.0 121.5Q44 187 44 280Q44 373 82.0 438.5Q120 504 181.5 539.0Q243 574 313 574Q366 574 414.0 554.0Q462 534 500.0 496.5Q538 459 560.0 404.5Q582 350 582 280Q582 187 544.0 121.5Q506 56 444.5 21.0Q383 -14 313 -14ZM313 106Q351 106 377.5 127.5Q404 149 417.5 188.0Q431 227 431 280Q431 333 417.5 372.0Q404 411 377.5 432.5Q351 454 313 454Q275 454 248.5 432.5Q222 411 208.5 372.0Q195 333 195 280Q195 227 208.5 188.0Q222 149 248.5 127.5Q275 106 313 106Z" /></g><g transform="translate(129.70000000000002,0) scale(0.05,-0.05)"><path d="M84 -214 53 -134Q111 -111 142.5 -74.0Q174 -37 174 7L169 112L221 25Q209 14 194.5 9.0Q180 4 164 4Q128 4 100.0 26.5Q72 49 72 91Q72 130 100.0 154.0Q128 178 168 178Q218 178 245.5 139.5Q273 101 273 33Q273 -55 224.0 -119.0Q175 -183 84 -214Z" /></g><g transform="translate(157.3,0) scale(0.05,-0.05)"><path d="M636 837H769V164H636ZM732 573H892V463H732ZM172 34H802V-73H172ZM172 234H306V-14H172ZM298 778Q369 778 426.0 748.0Q483 718 516.5 665.0Q550 612 550 543Q550 475 516.5 421.5Q483 368 426.0 337.5Q369 307 298 307Q227 307 170.0 337.5Q113 368 80.0 421.5Q47 475 47 543Q47 612 80.0 665.0Q113 718 170.0 748.0Q227 778 298 778ZM298 663Q264 663 236.5 648.5Q209 634 193.0 607.5Q177 581 177 543Q177 505 193.0 478.5Q209 452 236.5 437.5Q264 423 298 423Q333 423 360.5 437.5Q388 452 404.0 478.5Q420 505 420 543Q420 581 404.0 607.5Q388 634 360.5 648.5Q333 663 298 663Z" /></g><g transform="translate(203.3,0) scale(0.05,-0.05)"><path d="M94 791H227V401H94ZM94 428H170Q250 428 316.0 430.0Q382 432 442.5 438.5Q503 445 564 456L580 351Q516 338 453.0 331.5Q390 325 321.5 322.5Q253 320 170 320H94ZM682 838H816V282H682ZM462 755H715V654H462ZM462 596H715V495H462ZM502 270Q649 270 734.0 222.5Q819 175 819 91Q819 5 734.0 -42.5Q649 -90 502 -90Q355 -90 270.0 -42.5Q185 5 185 91Q185 175 270.0 222.5Q355 270 502 270ZM502 167Q442 167 401.0 159.0Q360 151 338.5 133.5Q317 116 317 91Q317 65 338.5 47.5Q360 30 401.0 21.5Q442 13 502 13Q562 13 603.0 21.5Q644 30 665.0 47.5Q686 65 686 91Q686 116 665.0 133.5Q644 151 603.0 159.0Q562 167 502 167Z" /></g><g transform="translate(249.3,0) scale(0.05,-0.05)"><path d="M634 837H767V-89H634ZM737 476H900V366H737ZM36 701H576V595H36ZM308 542Q375 542 428.0 513.5Q481 485 511.5 436.0Q542 387 542 322Q542 257 511.5 207.5Q481 158 428.5 129.5Q376 101 308 101Q241 101 187.5 129.5Q134 158 103.5 207.5Q73 257 73 322Q73 387 103.5 436.0Q134 485 187.5 513.5Q241 542 308 542ZM308 434Q276 434 252.0 421.0Q228 408 214.0 383.0Q200 358 200 322Q200 287 214.0 261.5Q228 236 252.0 222.5Q276 209 308 209Q339 209 363.0 222.5Q387 236 401.0 261.5Q415 287 415 322Q415 358 401.0 383.0Q387 408 363.0 421.0Q339 434 308 434ZM240 822H374V660H240Z" /></g><g transform="translate(295.3,0) scale(0.05,-0.05)"><path d="M405 526H559V418H405ZM208 757H309V602Q309 523 298.0 447.0Q287 371 262.5 304.0Q238 237 198.5 183.5Q159 130 103 96L23 196Q75 227 110.0 272.0Q145 317 167.0 371.0Q189 425 198.5 483.5Q208 542 208 602ZM237 757H336V608Q336 551 344.5 495.0Q353 439 372.0 388.0Q391 337 422.5 294.0Q454 251 502 220L429 116Q375 150 337.5 202.5Q300 255 278.0 321.0Q256 387 246.5 460.0Q237 533 237 608ZM709 838H836V-88H709ZM521 823H645V-47H521Z" /></g><g transform="translate(341.3,0) scale(0.05,-0.05)"><path d="M225 367H358V108H225ZM561 367H694V108H561ZM41 127H880V19H41ZM459 792Q559 792 637.5 761.0Q716 730 760.5 674.5Q805 619 805 543Q805 468 760.5 412.5Q716 357 637.5 326.0Q559 295 459 295Q360 295 281.5 326.0Q203 357 158.0 412.5Q113 468 113 543Q113 619 158.0 674.5Q203 730 281.5 761.0Q360 792 459 792ZM459 689Q395 689 346.5 671.5Q298 654 271.0 622.0Q244 590 244 543Q244 498 271.0 465.5Q298 433 346.5 415.5Q395 398 459 398Q524 398 572.5 415.5Q621 433 647.5 465.5Q674 498 674 543Q674 590 647.5 622.0Q621 654 572.5 671.5Q524 689 459 689Z" /></g>
    </g>

</svg>