<!-- Generated by balatro_text_to_svg.py - https://github.com/Breezebuilder/Steamodded-Wiki/blob/dev/Assets/Scripts/balatro_text_to_svg.py -->
<!--
	 {C:attention}1{} free {C:green}Reroll
	 1 free Reroll
-->

<svg xmlns="http://www.w3.org/2000/svg" height="128" viewBox="0 0 172 40">
	<defs>
		<path id="one" d="m4 8h4v18h4v4h-12v-4h4v-12h-4v-4h4v-2z"/>
		<path id="R" d="m0 8h10v2h2v8h-2v2h2v10h-4v-8h-2v-2h-2v10h-4v-22zm4 4v4h4v-4h-4z"/>
		<path id="e" d="m2 14h8v2h2v8h-8v2h8v4h-10v-2h-2v-12h2v-2zm2 4v2h4v-2h-4z"/>
		<path id="f" d="m4 8h8v4h-6v2h4v4h-4v12h-4v-12h-2v-4h2v-4h2v-2z"/>
		<path id="l" d="m0 8h4v22h-4v-22z"/>
		<path id="o" d="m2 14h8v2h2v12h-2v2h-8v-2h-2v-12h2v-2zm2 4v8h4v-8h-4z"/>
		<path id="r" d="m0 14h4v2h2v-2h6v4h-6v2h-2v10h-4v-16z"/>
	</defs>
	<g fill="rgba(0,0,0,0.3)">
		<g transform="translate(7,2)">
			<use href="#one" x="0"/>
		</g>
		<g transform="translate(21,2)">
			<use href="#f" x="12"/>
			<use href="#r" x="26"/>
			<use href="#e" x="40"/>
			<use href="#e" x="54"/>
		</g>
		<g transform="translate(101,2)">
			<use href="#R" x="0"/>
			<use href="#e" x="14"/>
			<use href="#r" x="28"/>
			<use href="#o" x="42"/>
			<use href="#l" x="56"/>
			<use href="#l" x="62"/>
		</g>
	</g>
	<g>
		<g fill="#FF9A00FF" transform="translate(5,0)">
			<use href="#one" x="0"/>
		</g>
		<g fill="#FFFFFFFF" transform="translate(19,0)">
			<use href="#f" x="12"/>
			<use href="#r" x="26"/>
			<use href="#e" x="40"/>
			<use href="#e" x="54"/>
		</g>
		<g fill="#4BC292FF" transform="translate(99,0)">
			<use href="#R" x="0"/>
			<use href="#e" x="14"/>
			<use href="#r" x="28"/>
			<use href="#o" x="42"/>
			<use href="#l" x="56"/>
			<use href="#l" x="62"/>
		</g>
	</g>
</svg>