<!-- Generated by balatro_text_to_svg.py - https://github.com/Breezebuilder/Steamodded-Wiki/blob/dev/Assets/Scripts/balatro_text_to_svg.py -->
<!--
	 Add {C:dark_edition}Negative
	 Add Negative
-->

<svg xmlns="http://www.w3.org/2000/svg" height="128" viewBox="0 0 168 40">
	<defs>
		<path id="A" d="m2 8h8v2h2v20h-4v-8h-4v8h-4v-20h2v-2zm2 4v6h4v-6h-4z"/>
		<path id="N" d="m0 8h10v2h2v20h-4v-18h-4v18h-4v-22z"/>
		<path id="a" d="m0 14h10v2h2v14h-10v-2h-2v-6h2v-2h6v-2h-8v-4zm4 10v2h4v-2h-4z"/>
		<path id="d" d="m8 8h4v22h-10v-2h-2v-12h2v-2h6v-6zm-4 10v8h4v-8h-4z"/>
		<path id="e" d="m2 14h8v2h2v8h-8v2h8v4h-10v-2h-2v-12h2v-2zm2 4v2h4v-2h-4z"/>
		<path id="g" d="m2 14h8v2h2v18h-2v2h-10v-4h8v-2h-6v-2h-2v-12h2v-2zm2 4v8h4v-8h-4z"/>
		<path id="i" d="m0 8h4v4h-4v-4zm0 6h4v16h-4v-16z"/>
		<path id="t" d="m2 8h4v6h6v4h-6v8h6v4h-8v-2h-2v-10h-2v-4h2v-6z"/>
		<path id="v" d="m0 14h4v10h4v-10h4v12h-2v2h-2v2h-4v-2h-2v-2h-2v-12z"/>
	</defs>
	<g fill="rgba(0,0,0,0.3)">
		<g transform="translate(7,2)">
			<use href="#A" x="0"/>
			<use href="#d" x="14"/>
			<use href="#d" x="28"/>
		</g>
		<g transform="translate(61,2)">
			<use href="#N" x="0"/>
			<use href="#e" x="14"/>
			<use href="#g" x="28"/>
			<use href="#a" x="42"/>
			<use href="#t" x="56"/>
			<use href="#i" x="70"/>
			<use href="#v" x="76"/>
			<use href="#e" x="90"/>
		</g>
	</g>
	<g>
		<g fill="#FFFFFFFF" transform="translate(5,0)">
			<use href="#A" x="0"/>
			<use href="#d" x="14"/>
			<use href="#d" x="28"/>
		</g>
		<g transform="translate(59,0)">
			<animate attributeName="fill" values="#9999CC; #BDA7A7; #CC9999; #BDA7A7; #9999CB; #7474F0; #6565FF; #7474F0; #9999CC" dur="4s" repeatCount="indefinite"/>
			<use href="#N" x="0"/>
			<use href="#e" x="14"/>
			<use href="#g" x="28"/>
			<use href="#a" x="42"/>
			<use href="#t" x="56"/>
			<use href="#i" x="70"/>
			<use href="#v" x="76"/>
			<use href="#e" x="90"/>
		</g>
	</g>
</svg>