<!-- Generated by balatro_text_to_svg.py - https://github.com/Breezebuilder/Steamodded-Wiki/blob/dev/Assets/Scripts/balatro_text_to_svg.py -->
<!--
	 {E:2,C:red}self destructs{}
	 self destructs
-->

<svg xmlns="http://www.w3.org/2000/svg" height="128" viewBox="0 0 196 40">
	<defs>
		<path id="c" d="m2 14h10v4h-8v8h8v4h-10v-2h-2v-12h2v-2z"/>
		<path id="d" d="m8 8h4v22h-10v-2h-2v-12h2v-2h6v-6zm-4 10v8h4v-8h-4z"/>
		<path id="e" d="m2 14h8v2h2v8h-8v2h8v4h-10v-2h-2v-12h2v-2zm2 4v2h4v-2h-4z"/>
		<path id="f" d="m4 8h8v4h-6v2h4v4h-4v12h-4v-12h-2v-4h2v-4h2v-2z"/>
		<path id="l" d="m0 8h4v22h-4v-22z"/>
		<path id="r" d="m0 14h4v2h2v-2h6v4h-6v2h-2v10h-4v-16z"/>
		<path id="s" d="m2 14h10v4h-8v2h6v2h2v6h-2v2h-10v-4h8v-2h-6v-2h-2v-6h2v-2z"/>
		<path id="t" d="m2 8h4v6h6v4h-6v8h6v4h-8v-2h-2v-10h-2v-4h2v-6z"/>
		<path id="u" d="m0 14h4v12h4v-12h4v14h-2v2h-8v-2h-2v-14z"/>
	</defs>
	<g fill="rgba(0,0,0,0.3)">
		<g transform="translate(7,2)">
			<use href="#s" x="0"/>
			<use href="#e" x="14"/>
			<use href="#l" x="28"/>
			<use href="#f" x="34"/>
			<use href="#d" x="60"/>
			<use href="#e" x="74"/>
			<use href="#s" x="88"/>
			<use href="#t" x="102"/>
			<use href="#r" x="116"/>
			<use href="#u" x="130"/>
			<use href="#c" x="144"/>
			<use href="#t" x="158"/>
			<use href="#s" x="172"/>
		</g>
	</g>
	<g>
		<g fill="#FE5F55FF" transform="translate(5,0)">
			<g>
				<g>
					<use href="#s" x="0"/>
					<use href="#e" x="74"/>
					<use href="#t" x="158"/>
					<animateMotion path="m0 0 a0.6 0.6 0 0 1 1.2 0" dur="2.4" begin="0" keyTimes="0;0.25;1" keyPoints="0;1;1" repeatCount="indefinite"/>
				</g>
				<animateMotion path="m0 0 a0.6 0.6 0 0 0 -1.2 0" dur="2.4" begin="0" keyTimes="0;0.25;1" keyPoints="0;1;1" repeatCount="indefinite"/>
			</g>
			<g>
				<g>
					<use href="#e" x="14"/>
					<use href="#s" x="88"/>
					<use href="#s" x="172"/>
					<animateMotion path="m0 0 a0.6 0.6 0 0 1 1.2 0" dur="2.4" begin="0.4" keyTimes="0;0.25;1" keyPoints="0;1;1" repeatCount="indefinite"/>
				</g>
				<animateMotion path="m0 0 a0.6 0.6 0 0 0 -1.2 0" dur="2.4" begin="0.4" keyTimes="0;0.25;1" keyPoints="0;1;1" repeatCount="indefinite"/>
			</g>
			<g>
				<g>
					<use href="#l" x="28"/>
					<use href="#t" x="102"/>
					<animateMotion path="m0 0 a0.6 0.6 0 0 1 1.2 0" dur="2.4" begin="0.8" keyTimes="0;0.25;1" keyPoints="0;1;1" repeatCount="indefinite"/>
				</g>
				<animateMotion path="m0 0 a0.6 0.6 0 0 0 -1.2 0" dur="2.4" begin="0.8" keyTimes="0;0.25;1" keyPoints="0;1;1" repeatCount="indefinite"/>
			</g>
			<g>
				<g>
					<use href="#f" x="34"/>
					<use href="#r" x="116"/>
					<animateMotion path="m0 0 a0.6 0.6 0 0 1 1.2 0" dur="2.4" begin="1.2" keyTimes="0;0.25;1" keyPoints="0;1;1" repeatCount="indefinite"/>
				</g>
				<animateMotion path="m0 0 a0.6 0.6 0 0 0 -1.2 0" dur="2.4" begin="1.2" keyTimes="0;0.25;1" keyPoints="0;1;1" repeatCount="indefinite"/>
			</g>
			<g>
				<g>
					<use href="#u" x="130"/>
					<animateMotion path="m0 0 a0.6 0.6 0 0 1 1.2 0" dur="2.4" begin="1.6" keyTimes="0;0.25;1" keyPoints="0;1;1" repeatCount="indefinite"/>
				</g>
				<animateMotion path="m0 0 a0.6 0.6 0 0 0 -1.2 0" dur="2.4" begin="1.6" keyTimes="0;0.25;1" keyPoints="0;1;1" repeatCount="indefinite"/>
			</g>
			<g>
				<g>
					<use href="#d" x="60"/>
					<use href="#c" x="144"/>
					<animateMotion path="m0 0 a0.6 0.6 0 0 1 1.2 0" dur="2.4" begin="2" keyTimes="0;0.25;1" keyPoints="0;1;1" repeatCount="indefinite"/>
				</g>
				<animateMotion path="m0 0 a0.6 0.6 0 0 0 -1.2 0" dur="2.4" begin="2" keyTimes="0;0.25;1" keyPoints="0;1;1" repeatCount="indefinite"/>
			</g>
		</g>
	</g>
</svg>