<!-- Generated by balatro_text_to_svg.py - https://github.com/Breezebuilder/Steamodded-Wiki/blob/dev/Assets/Scripts/balatro_text_to_svg.py -->
<!--
	 {B:1,V:2}Oh no!{} Anyway...
	 Oh no! Anyway...
-->

<svg xmlns="http://www.w3.org/2000/svg" height="128" viewBox="0 0 208 40">
	<defs>
		<path id="exclam" d="m0 8h4v16h-4v-16zm0 18h4v4h-4v-4z"/>
		<path id="period" d="m0 26h4v4h-4v-4z"/>
		<path id="A" d="m2 8h8v2h2v20h-4v-8h-4v8h-4v-20h2v-2zm2 4v6h4v-6h-4z"/>
		<path id="O" d="m2 8h8v2h2v18h-2v2h-8v-2h-2v-18h2v-2zm2 4v14h4v-14h-4z"/>
		<path id="a" d="m0 14h10v2h2v14h-10v-2h-2v-6h2v-2h6v-2h-8v-4zm4 10v2h4v-2h-4z"/>
		<path id="h" d="m0 8h4v6h6v2h2v14h-4v-12h-4v12h-4v-22z"/>
		<path id="n" d="m0 14h10v2h2v14h-4v-12h-4v12h-4v-16z"/>
		<path id="o" d="m2 14h8v2h2v12h-2v2h-8v-2h-2v-12h2v-2zm2 4v8h4v-8h-4z"/>
		<path id="w" d="m0 14h4v12h2v-10h4v10h2v-12h4v14h-2v2h-12v-2h-2v-14z"/>
		<path id="y" d="m0 14h4v12h4v-12h4v20h-2v2h-10v-4h8v-2h-6v-2h-2v-14z"/>
	</defs>
	<g fill="rgba(0,0,0,0.3)">
		<g transform="translate(87,2)">
			<use href="#A" x="12"/>
			<use href="#n" x="26"/>
			<use href="#y" x="40"/>
			<use href="#w" x="54"/>
			<use href="#a" x="72"/>
			<use href="#y" x="86"/>
			<use href="#period" x="100"/>
			<use href="#period" x="106"/>
			<use href="#period" x="112"/>
		</g>
	</g>
	<g>
		<path d="m8 0h72l4 4v28l-4 4h-72l-4-4v-28z" fill="#FF0000"/>
	</g>
	<g>
		<g fill="#000000" transform="translate(5,0)">
			<use href="#O" x="3.0"/>
			<use href="#h" x="17.0"/>
			<use href="#n" x="43.0"/>
			<use href="#o" x="57.0"/>
			<use href="#exclam" x="71.0"/>
		</g>
		<g fill="#FFFFFFFF" transform="translate(79,0)">
			<use href="#A" x="18.0"/>
			<use href="#n" x="32.0"/>
			<use href="#y" x="46.0"/>
			<use href="#w" x="60.0"/>
			<use href="#a" x="78.0"/>
			<use href="#y" x="92.0"/>
			<use href="#period" x="106.0"/>
			<use href="#period" x="112.0"/>
			<use href="#period" x="118.0"/>
		</g>
	</g>
</svg>